<svg xmlns="http://www.w3.org/2000/svg" fill="none" viewBox="0 0 700 700" height="400" width="400"><path fill="#000000" fill-rule="evenodd" d="M339.693 215.975C332.093 228.075 329.193 231.875 322.293 238.675C306.393 254.575 288.793 258.575 270.893 250.375C264.293 247.375 250.293 234.375 250.293 231.275C250.193 221.875 238.893 222.175 233.293 231.675C211.193 269.375 170.493 279.175 158.693 249.675C157.393 246.375 148.793 234.975 146.693 257.775C143.493 291.375 125.793 313.975 98.2928 319.675C85.3928 322.375 81.0929 322.175 73.3929 318.675C62.5929 313.875 60.6929 320.375 74.3929 329.275C91.1929 340.175 101.393 351.975 101.393 360.275C101.393 368.375 95.0929 373.775 69.3929 387.275C44.0929 400.575 53.1929 411.975 62.8929 407.375C68.8929 404.475 78.5929 405.975 96.8929 412.575C128.493 423.975 138.693 435.775 138.193 460.275C137.893 473.975 139.793 479.375 143.393 474.975C148.093 469.275 210.593 441.675 220.393 440.975C231.893 440.175 232.093 442.575 221.593 455.775C207.793 473.175 213.093 483.275 222.193 474.375C231.793 464.975 269.493 451.975 283.893 452.975C297.593 453.975 302.993 458.075 301.793 466.575C299.493 482.575 302.893 491.775 307.693 482.675C308.393 481.375 313.093 478.575 319.793 475.575C351.993 460.975 361.993 460.575 378.893 473.275C387.393 479.675 389.293 480.075 389.293 475.275C389.293 453.675 432.493 457.975 468.893 483.175C480.793 491.475 484.093 490.475 479.793 479.975C477.793 475.275 477.893 471.975 480.193 467.175C491.093 443.775 528.693 446.475 575.293 474.075C593.693 484.975 594.193 475.075 581.193 461.075C567.593 446.275 566.793 441.575 577.093 436.375C588.893 430.375 615.093 430.075 629.593 435.675C643.793 441.175 637.393 429.675 622.893 423.675C592.993 411.375 587.493 406.775 594.893 400.075C601.493 394.075 634.393 379.775 641.293 379.775C654.593 379.775 642.993 369.275 627.393 367.275C611.193 365.175 590.593 358.175 588.393 354.075C584.193 346.175 603.593 324.375 619.493 319.275C636.593 313.675 625.793 304.775 606.693 308.675C581.393 313.875 558.093 311.275 553.693 302.775C550.893 297.275 553.493 277.575 557.693 272.975C565.593 264.275 552.493 258.475 541.193 265.675C506.493 287.675 457.193 268.675 457.193 233.375C457.193 226.375 446.293 223.675 441.493 229.375C420.893 254.375 404.393 259.475 380.193 248.075C370.993 243.775 355.193 224.675 355.193 217.875C355.293 210.375 343.893 209.175 339.693 215.975ZM351.593 233.875C369.093 263.475 416.193 270.375 443.993 247.375L448.593 243.575L452.093 250.175C466.293 276.975 507.493 294.575 534.193 285.175L538.293 283.775V288.475C538.393 305.375 557.693 320.775 581.693 323.275L588.193 323.975L582.793 328.975C566.293 344.075 575.293 361.175 605.293 371.775L615.793 375.475L607.193 378.075C575.293 387.775 569.093 402.575 590.793 416.975L594.693 419.575C579.393 421.475 572.893 422.175 566.593 425.475C556.493 430.675 554.693 436.975 560.393 447.275C561.993 450.275 563.193 452.675 563.093 452.675C562.993 452.675 559.093 450.875 554.393 448.775C512.393 429.075 476.293 436.575 471.993 465.975C471.093 472.075 472.493 471.875 463.993 466.175C430.093 443.475 396.093 441.175 385.893 460.875L384.393 463.675L378.993 459.275C360.893 444.475 340.393 445.775 316.093 463.275C310.793 467.075 309.393 466.975 309.393 462.775C309.393 461.275 307.993 457.175 306.293 453.875C296.993 435.175 273.893 432.875 244.493 447.675L236.693 451.575L236.193 445.675C235.093 433.675 228.593 426.675 218.393 426.675C206.193 426.675 170.093 442.775 152.293 456.275C145.793 461.175 145.493 461.075 145.493 454.275C145.393 430.075 124.293 407.475 94.0926 399.175C89.1926 397.875 85.0928 396.575 84.7928 396.375C84.5928 396.175 86.9927 394.375 90.1927 392.375C113.293 378.075 114.993 355.875 94.6927 334.475L89.2928 328.775L93.0926 328.175C129.493 322.775 153.193 300.575 158.293 267.175L158.993 262.775L164.593 266.575C189.193 283.175 224.093 273.275 242.793 244.475L245.893 239.775L251.493 245.575C276.393 271.275 320.493 266.475 344.493 235.275C349.393 228.575 348.593 228.775 351.593 233.875Z" clip-rule="evenodd"></path></svg>