<svg xmlns="http://www.w3.org/2000/svg" fill="none" viewBox="0 0 610 610" height="350" width="350"><path fill="#fff8dc" fill-rule="evenodd" stroke="#000000" stroke-linecap="round" stroke-linejoin="round" stroke-miterlimit="1.5" stroke-width="4.936" d="M565.133 440.092C584.288 441.818 586.671 397.129 586.718 381.522C586.858 335.266 595.607 231.988 586.943 193.085C577.64 151.323 495.34 152.854 459.598 151.511C352.166 147.475 247.686 156.827 133.282 156.769C104.934 156.755 75.3924 153.225 47.4364 157.717C19.3032 162.238 10.327 180.559 7.39336 207.263C5.21624 227.077 3.8144 331.501 3.16236 363.762C2.84848 379.29 2.07078 418.761 11.3639 430.917C24.9506 448.691 60.368 445.716 75.5496 445.68C109.033 445.599 474.668 445.083 565.133 440.092Z" clip-rule="evenodd"></path><path fill="#fff8dc" fill-rule="evenodd" d="M40.0712 444.567C37.7473 448.005 35.8228 451.61 33.7131 455.176Z" clip-rule="evenodd"></path><path stroke="#000000" stroke-linecap="round" stroke-linejoin="round" stroke-miterlimit="1.5" stroke-width="4.936" d="M40.0712 444.567C37.7473 448.005 35.8228 451.61 33.7131 455.176"></path><path fill="#fff8dc" fill-rule="evenodd" d="M53.9045 445.761C51.6871 448.789 49.9266 452.125 47.7449 455.175Z" clip-rule="evenodd"></path><path stroke="#000000" stroke-linecap="round" stroke-linejoin="round" stroke-miterlimit="1.5" stroke-width="4.936" d="M53.9045 445.761C51.6871 448.789 49.9266 452.125 47.7449 455.175"></path><path fill="#fff8dc" fill-rule="evenodd" d="M68.062 445.761C65.663 449.267 63.3464 453.024 61.4951 456.85Z" clip-rule="evenodd"></path><path stroke="#000000" stroke-linecap="round" stroke-linejoin="round" stroke-miterlimit="1.5" stroke-width="4.936" d="M68.062 445.761C65.663 449.267 63.3464 453.024 61.4951 456.85"></path><path fill="#fff8dc" fill-rule="evenodd" d="M83.1235 445.583C81.1003 449.009 79.3695 452.541 77.5503 456.073Z" clip-rule="evenodd"></path><path stroke="#000000" stroke-linecap="round" stroke-linejoin="round" stroke-miterlimit="1.5" stroke-width="4.936" d="M83.1235 445.583C81.1003 449.009 79.3695 452.541 77.5503 456.073"></path><path fill="#fff8dc" fill-rule="evenodd" d="M101.054 445.505C97.7534 449.194 94.5324 453.113 91.7695 457.229Z" clip-rule="evenodd"></path><path stroke="#000000" stroke-linecap="round" stroke-linejoin="round" stroke-miterlimit="1.5" stroke-width="4.936" d="M101.054 445.505C97.7534 449.194 94.5324 453.113 91.7695 457.229"></path><path fill="#fff8dc" fill-rule="evenodd" d="M117.942 445.583C114.646 449.048 111.75 453.044 109.045 456.989Z" clip-rule="evenodd"></path><path stroke="#000000" stroke-linecap="round" stroke-linejoin="round" stroke-miterlimit="1.5" stroke-width="4.936" d="M117.942 445.583C114.646 449.048 111.75 453.044 109.045 456.989"></path><path fill="#fff8dc" fill-rule="evenodd" d="M138.902 445.505C136.057 448.709 133.936 452.541 131.327 455.946Z" clip-rule="evenodd"></path><path stroke="#000000" stroke-linecap="round" stroke-linejoin="round" stroke-miterlimit="1.5" stroke-width="4.936" d="M138.902 445.505C136.057 448.709 133.936 452.541 131.327 455.946"></path><path fill="#fff8dc" fill-rule="evenodd" d="M157.505 445.36C154.143 448.71 151.192 452.769 148.29 456.548Z" clip-rule="evenodd"></path><path stroke="#000000" stroke-linecap="round" stroke-linejoin="round" stroke-miterlimit="1.5" stroke-width="4.936" d="M157.505 445.36C154.143 448.71 151.192 452.769 148.29 456.548"></path><path fill="#fff8dc" fill-rule="evenodd" d="M174.546 445.405C170.566 449.115 167.323 453.068 163.946 457.293Z" clip-rule="evenodd"></path><path stroke="#000000" stroke-linecap="round" stroke-linejoin="round" stroke-miterlimit="1.5" stroke-width="4.936" d="M174.546 445.405C170.566 449.115 167.323 453.068 163.946 457.293"></path><path fill="#fff8dc" fill-rule="evenodd" d="M191.372 445.37C187.958 448.451 184.957 452.057 182.493 455.949Z" clip-rule="evenodd"></path><path stroke="#000000" stroke-linecap="round" stroke-linejoin="round" stroke-miterlimit="1.5" stroke-width="4.936" d="M191.372 445.37C187.958 448.451 184.957 452.057 182.493 455.949"></path><path fill="#fff8dc" fill-rule="evenodd" d="M211.121 445.249C207.394 448.291 203.924 452.174 200.972 456.003Z" clip-rule="evenodd"></path><path stroke="#000000" stroke-linecap="round" stroke-linejoin="round" stroke-miterlimit="1.5" stroke-width="4.936" d="M211.121 445.249C207.394 448.291 203.924 452.174 200.972 456.003"></path><path fill="#fff8dc" fill-rule="evenodd" d="M229.861 445.147C226.533 448.068 224.262 451.602 221.528 454.994Z" clip-rule="evenodd"></path><path stroke="#000000" stroke-linecap="round" stroke-linejoin="round" stroke-miterlimit="1.5" stroke-width="4.936" d="M229.861 445.147C226.533 448.068 224.262 451.602 221.528 454.994"></path><path fill="#fff8dc" fill-rule="evenodd" d="M250.04 445.104C246 448.92 241.647 452.775 238.372 457.315Z" clip-rule="evenodd"></path><path stroke="#000000" stroke-linecap="round" stroke-linejoin="round" stroke-miterlimit="1.5" stroke-width="4.936" d="M250.04 445.104C246 448.92 241.647 452.775 238.372 457.315"></path><path fill="#fff8dc" fill-rule="evenodd" d="M267.246 444.925C263.175 447.562 259.474 451.484 256.632 455.422Z" clip-rule="evenodd"></path><path stroke="#000000" stroke-linecap="round" stroke-linejoin="round" stroke-miterlimit="1.5" stroke-width="4.936" d="M267.246 444.925C263.175 447.562 259.474 451.484 256.632 455.422"></path><path fill="#fff8dc" fill-rule="evenodd" d="M284.096 444.802C280.362 447.131 276.566 450.229 273.875 453.757Z" clip-rule="evenodd"></path><path stroke="#000000" stroke-linecap="round" stroke-linejoin="round" stroke-miterlimit="1.5" stroke-width="4.936" d="M284.096 444.802C280.362 447.131 276.566 450.229 273.875 453.757"></path><path fill="#fff8dc" fill-rule="evenodd" d="M301.232 444.69C296.27 447.384 291.406 450.648 287.969 455.205Z" clip-rule="evenodd"></path><path stroke="#000000" stroke-linecap="round" stroke-linejoin="round" stroke-miterlimit="1.5" stroke-width="4.936" d="M301.232 444.69C296.27 447.384 291.406 450.648 287.969 455.205"></path><path fill="#fff8dc" fill-rule="evenodd" d="M318.014 444.601C313.823 447.135 310.268 450.501 307.275 454.352Z" clip-rule="evenodd"></path><path stroke="#000000" stroke-linecap="round" stroke-linejoin="round" stroke-miterlimit="1.5" stroke-width="4.936" d="M318.014 444.601C313.823 447.135 310.268 450.501 307.275 454.352"></path><path fill="#fff8dc" fill-rule="evenodd" d="M336.561 444.423C331.432 447.901 326.719 452.294 322.698 457.025Z" clip-rule="evenodd"></path><path stroke="#000000" stroke-linecap="round" stroke-linejoin="round" stroke-miterlimit="1.5" stroke-width="4.936" d="M336.561 444.423C331.432 447.901 326.719 452.294 322.698 457.025"></path><path fill="#fff8dc" fill-rule="evenodd" d="M340.229 456.119C344.715 452.049 349.519 447.945 354.351 444.278Z" clip-rule="evenodd"></path><path stroke="#000000" stroke-linecap="round" stroke-linejoin="round" stroke-miterlimit="1.5" stroke-width="4.936" d="M340.229 456.119C344.715 452.049 349.519 447.945 354.351 444.278"></path><path fill="#fff8dc" fill-rule="evenodd" d="M360.427 457.286C364.489 452.793 368.933 447.672 373.902 444.134Z" clip-rule="evenodd"></path><path stroke="#000000" stroke-linecap="round" stroke-linejoin="round" stroke-miterlimit="1.5" stroke-width="4.936" d="M360.427 457.286C364.489 452.793 368.933 447.672 373.902 444.134"></path><path fill="#fff8dc" fill-rule="evenodd" d="M380.568 454.729C383.762 450.666 387.892 447.228 391.695 443.731Z" clip-rule="evenodd"></path><path stroke="#000000" stroke-linecap="round" stroke-linejoin="round" stroke-miterlimit="1.5" stroke-width="4.936" d="M380.568 454.729C383.762 450.666 387.892 447.228 391.695 443.731"></path><path fill="#fff8dc" fill-rule="evenodd" d="M396.904 456.788C399.902 451.859 404.691 447.567 408.946 443.677Z" clip-rule="evenodd"></path><path stroke="#000000" stroke-linecap="round" stroke-linejoin="round" stroke-miterlimit="1.5" stroke-width="4.936" d="M396.904 456.788C399.902 451.859 404.691 447.567 408.946 443.677"></path><path fill="#fff8dc" fill-rule="evenodd" d="M411.672 457.548C416.329 452.521 421.244 447.875 426.557 443.539Z" clip-rule="evenodd"></path><path stroke="#000000" stroke-linecap="round" stroke-linejoin="round" stroke-miterlimit="1.5" stroke-width="4.936" d="M411.672 457.548C416.329 452.521 421.244 447.875 426.557 443.539"></path><path fill="#fff8dc" fill-rule="evenodd" d="M427.539 458.302C432.346 453.641 437.092 446.926 442.796 443.305Z" clip-rule="evenodd"></path><path stroke="#000000" stroke-linecap="round" stroke-linejoin="round" stroke-miterlimit="1.5" stroke-width="4.936" d="M427.539 458.302C432.346 453.641 437.092 446.926 442.796 443.305"></path><path fill="#fff8dc" fill-rule="evenodd" d="M444.758 457.852C448.608 452.496 453.366 447.476 458.212 442.992Z" clip-rule="evenodd"></path><path stroke="#000000" stroke-linecap="round" stroke-linejoin="round" stroke-miterlimit="1.5" stroke-width="4.936" d="M444.758 457.852C448.608 452.496 453.366 447.476 458.212 442.992"></path><path fill="#fff8dc" fill-rule="evenodd" d="M464.253 457.332C467.765 452.188 472.646 446.813 477.333 442.613Z" clip-rule="evenodd"></path><path stroke="#000000" stroke-linecap="round" stroke-linejoin="round" stroke-miterlimit="1.5" stroke-width="4.936" d="M464.253 457.332C467.765 452.188 472.646 446.813 477.333 442.613"></path><path fill="#fff8dc" fill-rule="evenodd" d="M483.847 456.149C486.775 451.35 490.646 446.005 495.109 442.382Z" clip-rule="evenodd"></path><path stroke="#000000" stroke-linecap="round" stroke-linejoin="round" stroke-miterlimit="1.5" stroke-width="4.936" d="M483.847 456.149C486.775 451.35 490.646 446.005 495.109 442.382"></path><path fill="#fff8dc" fill-rule="evenodd" d="M500.519 455.721C504.746 451.16 508.658 445.923 513.474 441.943Z" clip-rule="evenodd"></path><path stroke="#000000" stroke-linecap="round" stroke-linejoin="round" stroke-miterlimit="1.5" stroke-width="4.936" d="M500.519 455.721C504.746 451.16 508.658 445.923 513.474 441.943"></path><path fill="#fff8dc" fill-rule="evenodd" d="M517.404 458.084C521.405 452.461 526.885 445.623 532.522 441.465Z" clip-rule="evenodd"></path><path stroke="#000000" stroke-linecap="round" stroke-linejoin="round" stroke-miterlimit="1.5" stroke-width="4.936" d="M517.404 458.084C521.405 452.461 526.885 445.623 532.522 441.465"></path><path fill="#fff8dc" fill-rule="evenodd" d="M536.248 458.228C540.909 452.001 546.425 445.796 552.339 440.674Z" clip-rule="evenodd"></path><path stroke="#000000" stroke-linecap="round" stroke-linejoin="round" stroke-miterlimit="1.5" stroke-width="4.936" d="M536.248 458.228C540.909 452.001 546.425 445.796 552.339 440.674"></path><path fill="#fff8dc" fill-rule="evenodd" d="M553.444 459.818C558.807 453.243 563.742 446.327 569.112 439.756Z" clip-rule="evenodd"></path><path stroke="#000000" stroke-linecap="round" stroke-linejoin="round" stroke-miterlimit="1.5" stroke-width="4.936" d="M553.444 459.818C558.807 453.243 563.742 446.327 569.112 439.756"></path><path fill="#fff8dc" fill-rule="evenodd" d="M587.866 159.925C583.155 164.267 579.177 169.259 575.226 174.282Z" clip-rule="evenodd"></path><path stroke="#000000" stroke-linecap="round" stroke-linejoin="round" stroke-miterlimit="1.5" stroke-width="4.936" d="M587.866 159.925C583.155 164.267 579.177 169.259 575.226 174.282"></path><path fill="#fff8dc" fill-rule="evenodd" d="M594.871 171.99C590.751 175.917 586.935 179.978 583.837 184.739Z" clip-rule="evenodd"></path><path stroke="#000000" stroke-linecap="round" stroke-linejoin="round" stroke-miterlimit="1.5" stroke-width="4.936" d="M594.871 171.99C590.751 175.917 586.935 179.978 583.837 184.739"></path><path fill="#fff8dc" fill-rule="evenodd" d="M598.672 189.02C595.203 193.558 591.491 198.349 588.641 203.313Z" clip-rule="evenodd"></path><path stroke="#000000" stroke-linecap="round" stroke-linejoin="round" stroke-miterlimit="1.5" stroke-width="4.936" d="M598.672 189.02C595.203 193.558 591.491 198.349 588.641 203.313"></path><path fill="#fff8dc" fill-rule="evenodd" d="M601.081 209.009C597.144 213.269 593.853 218.088 590.235 222.612Z" clip-rule="evenodd"></path><path stroke="#000000" stroke-linecap="round" stroke-linejoin="round" stroke-miterlimit="1.5" stroke-width="4.936" d="M601.081 209.009C597.144 213.269 593.853 218.088 590.235 222.612"></path><path fill="#fff8dc" fill-rule="evenodd" d="M605.583 226.323C599.759 231.452 595.438 237.431 590.704 243.493Z" clip-rule="evenodd"></path><path stroke="#000000" stroke-linecap="round" stroke-linejoin="round" stroke-miterlimit="1.5" stroke-width="4.936" d="M605.583 226.323C599.759 231.452 595.438 237.431 590.704 243.493"></path><path fill="#fff8dc" fill-rule="evenodd" d="M604.013 245.197C599.469 250.805 594.766 256.591 590.704 262.569Z" clip-rule="evenodd"></path><path stroke="#000000" stroke-linecap="round" stroke-linejoin="round" stroke-miterlimit="1.5" stroke-width="4.936" d="M604.013 245.197C599.469 250.805 594.766 256.591 590.704 262.569"></path><path fill="#fff8dc" fill-rule="evenodd" d="M606.915 262.026C600.821 269.671 595.476 277.971 590.048 286.097Z" clip-rule="evenodd"></path><path stroke="#000000" stroke-linecap="round" stroke-linejoin="round" stroke-miterlimit="1.5" stroke-width="4.936" d="M606.915 262.026C600.821 269.671 595.476 277.971 590.048 286.097"></path><path fill="#fff8dc" fill-rule="evenodd" d="M603.977 287.118C597.952 293.178 594.278 300.565 589.376 307.446Z" clip-rule="evenodd"></path><path stroke="#000000" stroke-linecap="round" stroke-linejoin="round" stroke-miterlimit="1.5" stroke-width="4.936" d="M603.977 287.118C597.952 293.178 594.278 300.565 589.376 307.446"></path><path fill="#fff8dc" fill-rule="evenodd" d="M602.861 310.501C597.211 316.387 593.878 324.086 588.407 329.967Z" clip-rule="evenodd"></path><path stroke="#000000" stroke-linecap="round" stroke-linejoin="round" stroke-miterlimit="1.5" stroke-width="4.936" d="M602.861 310.501C597.211 316.387 593.878 324.086 588.407 329.967"></path><path fill="#fff8dc" fill-rule="evenodd" d="M602.166 333.044C596.982 339.521 592.541 346.561 587.469 353.125Z" clip-rule="evenodd"></path><path stroke="#000000" stroke-linecap="round" stroke-linejoin="round" stroke-miterlimit="1.5" stroke-width="4.936" d="M602.166 333.044C596.982 339.521 592.541 346.561 587.469 353.125"></path><path fill="#fff8dc" fill-rule="evenodd" d="M601.293 355.991C596.061 361.03 590.696 367.452 586.844 373.625Z" clip-rule="evenodd"></path><path stroke="#000000" stroke-linecap="round" stroke-linejoin="round" stroke-miterlimit="1.5" stroke-width="4.936" d="M601.293 355.991C596.061 361.03 590.696 367.452 586.844 373.625"></path><path fill="#fff8dc" fill-rule="evenodd" d="M600.167 375.571C594.766 380.88 590.27 388.182 586.298 394.593Z" clip-rule="evenodd"></path><path stroke="#000000" stroke-linecap="round" stroke-linejoin="round" stroke-miterlimit="1.5" stroke-width="4.936" d="M600.167 375.571C594.766 380.88 590.27 388.182 586.298 394.593"></path><path fill="#fff8dc" fill-rule="evenodd" d="M601.74 395.404C595.074 402.637 589.318 410.762 582.899 418.225Z" clip-rule="evenodd"></path><path stroke="#000000" stroke-linecap="round" stroke-linejoin="round" stroke-miterlimit="1.5" stroke-width="4.936" d="M601.74 395.404C595.074 402.637 589.318 410.762 582.899 418.225"></path><path fill="#fff8dc" fill-rule="evenodd" d="M599.191 419.432C590.143 429.462 580.431 441.115 573.194 452.677Z" clip-rule="evenodd"></path><path stroke="#000000" stroke-linecap="round" stroke-linejoin="round" stroke-miterlimit="1.5" stroke-width="4.936" d="M599.191 419.432C590.143 429.462 580.431 441.115 573.194 452.677"></path><path fill="#fff8dc" fill-rule="evenodd" d="M601.517 434.525C597.305 439.568 593.848 445.141 589.735 450.262Z" clip-rule="evenodd"></path><path stroke="#000000" stroke-linecap="round" stroke-linejoin="round" stroke-miterlimit="1.5" stroke-width="4.936" d="M601.517 434.525C597.305 439.568 593.848 445.141 589.735 450.262"></path></svg>