<svg xmlns="http://www.w3.org/2000/svg" fill="#ffffff" viewBox="0 0 610 610" height="140" width="140"><path stroke="#000000" stroke-linecap="round" stroke-linejoin="round" stroke-miterlimit="1.5" stroke-width="4.936" d="M384.852 124.404C286.289 112.186 135.912 137.193 64.4774 204.769C3.77654 262.189 4.63562 365.412 75.0321 419.783C134.068 465.381 201.188 475 234.81 476.897C329.348 482.23 474.621 467.954 541.397 397.823C594.188 342.381 582.735 242.098 519.888 183.741C485.639 151.939 430.787 129.224 384.852 124.404Z" clip-rule="evenodd"></path><path stroke="#000000" stroke-linecap="round" stroke-linejoin="round" stroke-miterlimit="1.5" stroke-width="4.936" d="M424.828 117.5C422.558 121.902 420.254 126.277 417.797 130.575"></path><path stroke="#000000" stroke-linecap="round" stroke-linejoin="round" stroke-miterlimit="1.5" stroke-width="4.936" d="M442.952 121.552C440.078 126.054 436.903 130.555 434.469 135.326"></path><path stroke="#000000" stroke-linecap="round" stroke-linejoin="round" stroke-miterlimit="1.5" stroke-width="4.936" d="M461.318 128.905C458.665 133.468 456.619 138.195 454.352 142.925"></path><path stroke="#000000" stroke-linecap="round" stroke-linejoin="round" stroke-miterlimit="1.5" stroke-width="4.936" d="M477.412 135.704C475.192 140.701 473.303 145.743 471.337 150.829"></path><path stroke="#000000" stroke-linecap="round" stroke-linejoin="round" stroke-miterlimit="1.5" stroke-width="4.936" d="M497.543 150.29C495.604 154.299 494.113 158.535 492.112 162.507"></path><path stroke="#000000" stroke-linecap="round" stroke-linejoin="round" stroke-miterlimit="1.5" stroke-width="4.936" d="M515.861 161.261C513.294 165.471 510.806 169.672 508.394 173.959"></path><path stroke="#000000" stroke-linecap="round" stroke-linejoin="round" stroke-miterlimit="1.5" stroke-width="4.936" d="M532.514 177.415C529.646 181.004 527.603 184.973 525.356 188.934"></path><path stroke="#000000" stroke-linecap="round" stroke-linejoin="round" stroke-miterlimit="1.5" stroke-width="4.936" d="M547.734 194.346C545.375 198.731 543.558 203.348 541.326 207.793"></path><path stroke="#000000" stroke-linecap="round" stroke-linejoin="round" stroke-miterlimit="1.5" stroke-width="4.936" d="M564.558 210.571C560.725 216.022 557.54 222.119 554.139 227.847"></path><path stroke="#000000" stroke-linecap="round" stroke-linejoin="round" stroke-miterlimit="1.5" stroke-width="4.936" d="M576.481 233.296C572.149 238.984 567.936 245.436 564.912 251.947"></path><path stroke="#000000" stroke-linecap="round" stroke-linejoin="round" stroke-miterlimit="1.5" stroke-width="4.936" d="M583.346 256.504C579.136 262.253 574.499 267.79 571.179 274.121"></path><path stroke="#000000" stroke-linecap="round" stroke-linejoin="round" stroke-miterlimit="1.5" stroke-width="4.936" d="M588.098 278.678C583.803 285.385 579.487 292.288 574.647 298.632"></path><path stroke="#000000" stroke-linecap="round" stroke-linejoin="round" stroke-miterlimit="1.5" stroke-width="4.936" d="M589.122 303.489C584.052 310.108 577.847 317.746 574.022 325.205"></path><path stroke="#000000" stroke-linecap="round" stroke-linejoin="round" stroke-miterlimit="1.5" stroke-width="4.936" d="M587.582 332.653C579.145 341.676 572.155 352.122 564.678 361.933"></path><path stroke="#000000" stroke-linecap="round" stroke-linejoin="round" stroke-miterlimit="1.5" stroke-width="4.936" d="M146.172 458.775C142.867 462.38 140.139 466.311 137.295 470.26"></path><path stroke="#000000" stroke-linecap="round" stroke-linejoin="round" stroke-miterlimit="1.5" stroke-width="4.936" d="M121.479 448.306C118.246 452.42 115.656 456.987 112.35 461.07"></path><path stroke="#000000" stroke-linecap="round" stroke-linejoin="round" stroke-miterlimit="1.5" stroke-width="4.936" d="M169.038 466.097C165.4 469.831 162.462 474.053 159.108 478.02"></path><path stroke="#000000" stroke-linecap="round" stroke-linejoin="round" stroke-miterlimit="1.5" stroke-width="4.936" d="M192.928 471.688C190.527 475.135 188.024 478.568 185.806 482.137"></path><path stroke="#000000" stroke-linecap="round" stroke-linejoin="round" stroke-miterlimit="1.5" stroke-width="4.936" d="M216.408 475.229C213.911 479.542 210.957 483.972 208.847 488.467"></path><path stroke="#000000" stroke-linecap="round" stroke-linejoin="round" stroke-miterlimit="1.5" stroke-width="4.936" d="M237.573 477.057C234.292 481.156 231.086 485.323 227.816 489.428"></path><path stroke="#000000" stroke-linecap="round" stroke-linejoin="round" stroke-miterlimit="1.5" stroke-width="4.936" d="M260.749 477.895C257.485 482.686 254.424 487.648 251.324 492.546"></path><path stroke="#000000" stroke-linecap="round" stroke-linejoin="round" stroke-miterlimit="1.5" stroke-width="4.936" d="M286.616 477.874C282.5 482.668 278.96 487.571 275.616 492.896"></path><path stroke="#000000" stroke-linecap="round" stroke-linejoin="round" stroke-miterlimit="1.5" stroke-width="4.936" d="M311.217 476.768C307.775 481.136 304.402 485.519 301.312 490.144"></path><path stroke="#000000" stroke-linecap="round" stroke-linejoin="round" stroke-miterlimit="1.5" stroke-width="4.936" d="M340.415 474.411C336.373 478.74 332.454 483.208 329.182 488.154"></path><path stroke="#000000" stroke-linecap="round" stroke-linejoin="round" stroke-miterlimit="1.5" stroke-width="4.936" d="M363.817 471.667C359.072 476.202 353.433 482.159 350.135 487.897"></path><path stroke="#000000" stroke-linecap="round" stroke-linejoin="round" stroke-miterlimit="1.5" stroke-width="4.936" d="M387.81 467.76C383.017 473.229 379.824 479.996 375.083 485.476"></path><path stroke="#000000" stroke-linecap="round" stroke-linejoin="round" stroke-miterlimit="1.5" stroke-width="4.936" d="M418.524 461.131C411.773 468.293 405.668 475.935 399.661 483.713"></path><path stroke="#000000" stroke-linecap="round" stroke-linejoin="round" stroke-miterlimit="1.5" stroke-width="4.936" d="M447.095 452.725C440.128 459.942 433.619 467.703 427.562 475.696"></path><path stroke="#000000" stroke-linecap="round" stroke-linejoin="round" stroke-miterlimit="1.5" stroke-width="4.936" d="M472.583 443.172C468.172 450.858 463.257 457.809 458.164 465.009"></path><path stroke="#000000" stroke-linecap="round" stroke-linejoin="round" stroke-miterlimit="1.5" stroke-width="4.936" d="M498.194 430.617C492.439 438.749 484.752 446.368 480.534 455.495"></path><path stroke="#000000" stroke-linecap="round" stroke-linejoin="round" stroke-miterlimit="1.5" stroke-width="4.936" d="M528.771 409.711C521.028 418.327 514.798 429.21 508.472 438.976"></path><path stroke="#000000" stroke-linecap="round" stroke-linejoin="round" stroke-miterlimit="1.5" stroke-width="4.936" d="M580.124 364.239C566.602 383.344 554.935 404.831 540.436 423.113"></path></svg>