<?xml version="1.0" encoding="UTF-8" standalone="no"?>
<!-- Created with Inkscape (http://www.inkscape.org/) -->

<svg
   xmlns:dc="http://purl.org/dc/elements/1.1/"
   xmlns:cc="http://creativecommons.org/ns#"
   xmlns:rdf="http://www.w3.org/1999/02/22-rdf-syntax-ns#"
   xmlns:svg="http://www.w3.org/2000/svg"
   xmlns="http://www.w3.org/2000/svg"
   xmlns:sodipodi="http://sodipodi.sourceforge.net/DTD/sodipodi-0.dtd"
   xmlns:inkscape="http://www.inkscape.org/namespaces/inkscape"
   version="1.1"
   id="svg815"
   xml:space="preserve"
   width="816"
   height="816"
   viewBox="0 0 816 816"
   sodipodi:docname="ink-blot-black-svg.svg"
   inkscape:version="0.92.4 (5da689c313, 2019-01-14)"><metadata
     id="metadata821"><rdf:RDF><cc:Work
         rdf:about=""><dc:format>image/svg+xml</dc:format><dc:type
           rdf:resource="http://purl.org/dc/dcmitype/StillImage" /><dc:title></dc:title></cc:Work></rdf:RDF></metadata><defs
     id="defs819"><clipPath
       clipPathUnits="userSpaceOnUse"
       id="clipPath831"><path
         d="M 0,612 H 612 V 0 H 0 Z"
         id="path829"
         inkscape:connector-curvature="0" /></clipPath></defs><sodipodi:namedview
     pagecolor="#ffffff"
     bordercolor="#666666"
     borderopacity="1"
     objecttolerance="10"
     gridtolerance="10"
     guidetolerance="10"
     inkscape:pageopacity="0"
     inkscape:pageshadow="2"
     inkscape:window-width="1920"
     inkscape:window-height="1018"
     id="namedview817"
     showgrid="false"
     inkscape:zoom="1.0404412"
     inkscape:cx="408"
     inkscape:cy="254.21908"
     inkscape:window-x="-8"
     inkscape:window-y="-8"
     inkscape:window-maximized="1"
     inkscape:current-layer="g823" /><g
     id="g823"
     inkscape:groupmode="layer"
     inkscape:label="splatter-10-publicdomainvectors.org [Converted]"
     transform="matrix(1.3333333,0,0,-1.3333333,0,816)"><g
       id="g825"><g
         id="g827"
         clip-path="url(#clipPath831)"><path
           d="m 255.122,256.254 c -1.127,4.369 -3.172,1.333 0,0 m -131.308,96.21 c -0.962,0.339 -1.633,0.959 -2.596,1.298 -0.481,-1.441 2.393,-2.678 2.596,-1.298 m 1.957,12.349 c -2.865,-0.854 -4.081,3.666 -5.205,0.649 1.038,-0.531 3.97,-2.463 5.205,-0.649 m 291.86,-33.151 c 0.183,1.326 1.761,1.273 1.951,2.602 -1.333,0.171 -3.014,-2.527 -1.951,-2.602 M 150.47,298.514 c -1.501,-0.203 -0.729,1.871 -1.95,1.95 -0.311,-1.273 1.747,-3.331 1.95,-1.95 m 274.966,44.845 c -0.321,-0.019 -2.426,-0.174 -1.954,-0.649 0.788,-0.788 4.267,0.981 1.954,1.298 0.002,0 -0.01,-0.649 0,-0.649 M 137.468,299.162 c 0.212,-0.301 0.408,-0.706 0.605,-1.123 -0.032,-0.022 -0.07,-0.038 -0.102,-0.063 0.064,-0.074 0.136,-0.092 0.203,-0.15 0.525,-1.117 1.063,-2.178 1.893,-1.265 -0.25,0.268 -0.525,0.648 -0.804,1.019 1.143,0.329 2.121,2.076 0.861,2.884 0.199,-1.315 -0.678,-1.637 -1.466,-2.045 -1.06,1.557 -2.194,3.444 -3.143,4.641 -0.342,0.433 -0.567,3.51 -1.947,1.3 1.405,-1.75 2.877,-3.751 3.9,-5.198 m 285.362,48.753 c 1.798,-0.861 2.229,2.564 1.301,0.648 -0.123,0.007 -0.263,0.007 -0.402,0.003 1.098,0.28 0.855,2.647 -0.776,1.907 v -1.818 c 0.174,-0.079 0.317,-0.089 0.459,-0.101 -0.785,-0.054 -1.488,-0.256 -0.582,-0.639 M 134.866,306.311 c -0.314,0.769 -0.694,1.475 -1.298,1.947 -0.102,-0.867 1.022,-3.581 1.298,-1.947 m 232.709,130.656 c -0.124,1.744 2.21,2.877 0,4.549 0.007,-1.162 -1.747,-3.777 0,-4.549 m 6.499,-5.198 c 0.054,-1.13 -0.142,-2.024 -0.652,-2.606 2.365,0.028 2.093,2.678 3.904,3.248 -1.837,0.545 -1.685,-0.912 -3.252,-0.642 M 260.972,240.656 c -0.924,0.156 -1.098,1.071 -1.95,1.305 -0.569,-1.339 1.685,-2.925 1.95,-1.305 m -24.05,187.862 c -2.193,1.974 -1.972,-2.404 0,0 M 129.665,391.462 c -1.973,-0.399 -5.601,0.836 -6.5,-0.649 1.979,0.409 5.6,-0.833 6.5,0.649 M 259.674,256.254 c 0.035,-1.209 -0.5,-1.37 -1.304,-0.646 -0.652,-1.96 1.45,-1.152 2.602,-1.297 0.035,1.117 -0.5,1.662 -1.298,1.943 m 115.701,180.06 c 1.713,-0.199 1.678,1.355 1.951,2.599 -2.096,0.589 -0.912,-2.117 -1.951,-2.599 M 116.02,388.863 c -1.234,-0.148 -1.437,0.735 -2.605,0.65 -1.042,-1.812 2.808,-1.795 2.605,-0.65 m 263.255,44.203 c 0.096,0.77 1.159,1.472 0,1.951 -0.094,-0.77 -1.152,-1.476 0,-1.951 M 137.465,306.96 c 0.218,-1.514 0.671,-2.799 1.953,-3.248 -0.218,1.516 -0.668,2.798 -1.953,3.248 m 20.153,-9.744 c -2.628,2.282 -1.539,-2.096 0,0 m 3.251,-20.806 c 0.503,-0.49 0.918,-1.092 1.326,-1.652 0.029,-0.658 0.348,-1.048 0.982,-1.15 0.449,-0.395 0.952,-0.607 1.595,-0.452 -0.576,0.009 -0.934,0.177 -1.177,0.427 0.069,0.004 0.12,-0.016 0.193,-0.009 v 1.494 h -0.665 c -0.041,0.745 0.003,1.526 -0.307,1.992 -0.136,0.209 -1.114,-0.184 -1.298,0 -0.219,0.221 0.215,1.076 0,1.3 -1.282,1.362 -3.017,2.412 -4.549,3.898 -1.377,1.332 -2.444,3.878 -4.55,3.896 0.064,-1.462 1.735,-2.197 2.597,-3.245 0.623,-0.753 0.702,-1.854 1.297,-2.598 1.248,-1.548 3.27,-2.66 4.556,-3.901 m 1.95,16.899 c 0.133,-0.45 -1.428,2.045 -1.953,0.652 1.013,-0.753 -0.336,-0.918 0.655,-1.953 1.431,-1.494 4.65,-7.167 5.847,-5.854 -1.782,2.096 -3.681,4.22 -5.198,6.503 0.158,-0.244 0.766,0.259 0.649,0.652 m 89.701,-57.202 c -2.586,2.552 -6.132,5.505 -8.45,7.804 -1.104,1.089 -1.636,2.524 -2.595,3.248 -0.706,0.535 -1.824,0.235 -2.606,0.655 -0.474,0.248 -0.107,2.099 -1.298,0.643 0.12,1.422 -0.531,2.07 -1.95,1.953 0.703,-1.361 1.21,-2.557 1.95,-3.251 1.096,-1.029 2.704,-1.51 3.904,-2.599 1.886,-1.732 2.633,-3.039 4.549,-3.904 2.06,-0.933 4.128,-6.524 6.496,-4.549 m -95.551,38.357 c 3.251,-0.02 3.995,-5.949 7.151,-3.903 -1.329,-0.118 -2.65,1.645 -3.9,2.595 -1.117,0.849 -3.099,3.745 -3.251,1.308 m 28.602,-1.957 c 2.536,-3.096 1.747,1.643 0,0 m 40.3,-24.05 c -0.827,-2.561 1.779,-1.69 2.596,-2.599 -0.279,1.456 -1.143,2.314 -2.596,2.599 m -65.651,48.104 c -0.766,-0.102 -1.849,0.107 -1.95,-0.65 0.931,-0.155 1.095,-1.07 1.95,-1.298 z m 65.407,188.173 c -0.845,-0.741 -0.598,-2.229 1.076,-1.994 0.149,1.133 -0.129,1.871 -1.076,1.994 m 3.764,-46.815 c 1.646,-0.487 2.647,3.666 0.538,3.486 -0.741,-0.642 -0.532,-2.166 -0.538,-3.486 m -5.378,0.501 c 2.548,-0.839 2.963,2.861 0.538,2.488 -0.453,-0.58 -0.713,-1.336 -0.538,-2.488 m -3.296,91.154 c 0.405,0.402 0.174,1.022 0.538,1.494 0.174,0.234 0.874,0.253 1.07,0.5 0.342,0.414 0.257,1.12 0.535,1.491 1.055,1.371 2.229,2.618 3.232,3.985 0.507,0.691 1.013,1.229 1.615,1.992 1.2,1.529 1.817,3.115 2.691,4.485 0.184,0.289 0.854,0.675 1.07,0.995 0.272,0.411 0.196,1.089 0.538,1.494 1.621,1.915 4.539,2.735 5.382,4.983 0.468,1.257 0.25,2.969 0,4.483 -0.69,0.025 -0.747,0.632 -1.615,0.497 -1.456,-1.384 -2.19,-1.745 -3.229,-3.486 -1.304,-2.2 -2.893,-5.35 -3.761,-6.977 -0.386,-0.709 -0.161,-1.304 -0.538,-1.989 -0.956,-1.744 -2.703,-3.298 -3.767,-4.982 -0.311,-0.497 -0.275,-1.083 -0.539,-1.495 -0.898,-1.44 -1.646,-2.621 -2.684,-3.985 -0.614,-0.798 -1.542,-1.19 -2.152,-1.991 -0.615,-0.801 -0.969,-2.106 -1.615,-2.985 -0.269,-0.368 -0.776,-0.523 -1.076,-0.998 -0.678,-1.085 -1.02,-1.814 -1.612,-2.491 -1.871,-2.121 -3.34,-4.363 -4.84,-6.471 -1.105,-1.554 -3.441,-3.295 -2.685,-5.48 4.002,5.005 8.7,12.213 13.442,16.931 m 14.053,13.923 c -0.08,-0.586 -0.959,-1.128 0,-1.492 0.076,0.589 0.956,1.127 0,1.492 M 150.343,304.449 c -0.766,0.12 -0.905,0.821 -1.614,0.997 -0.469,-1.022 1.396,-2.234 1.614,-0.997 m 11.758,168.354 c 0.164,1.149 -1.552,0.553 -1.615,1.488 1.713,0.414 0.753,3.295 3.229,2.994 1.69,0.241 1.418,-1.719 2.691,-0.497 -0.045,0.864 0.12,1.548 0.538,1.988 -6.221,1.159 -9.513,-4.163 -6.99,-7.968 1.368,0.064 2.083,0.725 2.147,1.995 m -1.615,8.965 c -0.386,1.349 2.542,-0.358 2.153,0.994 -1.33,-0.646 -2.229,1.463 -2.685,0 1.007,-0.117 -0.307,-0.82 0.532,-0.994 m 76.968,38.821 c 3.644,-0.072 3.026,5.661 1.615,7.472 -0.437,-2.847 -2.435,-4.854 -1.615,-7.472 m -92.487,-3.982 v -13.448 c 0.029,-0.523 0.691,-0.389 0.539,0.497 v 7.968 c 0.275,2.909 -0.377,5.353 0,7.968 0.19,1.348 1.016,2.662 1.076,3.983 0.184,3.976 -1.219,8.034 -0.538,12.95 0.019,0.529 -0.253,1.264 -0.538,0.501 0.525,-7.699 -2.242,-12.524 -0.539,-20.419 m 16.057,-35.836 c 0.722,0.073 1.627,-2.026 2.153,-0.498 -0.336,0.276 -1.621,2.02 -2.153,0.498 m -4.226,-190.76 c -2.226,1.336 -5.113,1.474 -6.993,2.988 0.044,-0.038 0.699,0.196 0,0.497 0.202,-0.089 -1.102,-0.95 -1.076,0 0.303,-0.004 0.613,0.401 0,0.497 -0.007,-0.823 -1.492,-0.279 -1.615,-0.994 1.491,0.082 1.848,-0.767 1.076,-1.498 3.432,1.656 6.186,-2.418 8.608,-1.49 m 10.684,190.76 c -0.221,1.2 0.981,1.083 0.539,2.488 -2.084,0.548 -1.919,-1.763 -3.23,-0.497 0.098,-1.399 0.938,-2.121 2.691,-1.991 m 33.335,22.407 c -2.203,1.152 -4.122,-1.656 -3.764,-4.483 3.302,-0.396 3.612,1.972 3.764,4.483 m -6.448,-6.971 c -1.419,0.152 -1.764,-0.687 -1.618,-1.992 1.418,-0.148 1.767,0.691 1.618,1.992 m -55.86,-200.223 c 0.165,-2.036 -0.74,0.082 -2.146,-0.5 -0.336,-3.188 -0.946,-0.529 -1.076,-0.497 0.038,-0.009 -0.073,-0.624 -0.538,-0.497 -0.282,0.075 -1.511,1.586 -1.615,0.497 1.418,-0.874 -0.716,-2.08 -1.07,-0.497 -0.741,-0.636 -0.741,-2.352 0,-2.985 2.362,-0.222 2.349,0.977 2.685,1.494 1.139,-1.029 3.722,0.836 5.913,0.497 -0.152,1.349 -1.969,1.161 -2.153,2.488 M 262.194,450.87 c 1.545,2.885 -1.329,1.308 0,0 m 1.077,24.899 c 1.25,-0.447 0.307,3.39 0,1.491 -0.171,-5.816 -5.287,-7.056 -4.306,-13.942 5.756,0.887 3.077,8.677 4.306,12.451 m 0,42.826 c 0.373,0.37 1.335,2.441 -0.539,1.994 0.089,-0.747 -0.192,-1.836 0.539,-1.994 m 0,-60.757 c 0.456,-1.788 -1.526,-3.856 -0.539,-4.48 0.349,1.033 2.008,3.407 0.539,4.48 m -4.306,-3.983 c -0.183,0.938 1.244,3.628 0,2.489 0.323,-0.886 -1.576,-2.068 0,-2.489 m -8.604,6.972 c 0.608,1.699 3.115,3.536 1.076,5.48 0.152,-4.629 -4.407,-7.535 -2.152,-12.452 0.506,2.315 0.351,4.952 1.076,6.972 m 0.538,9.962 c -0.158,-0.307 -1.336,-1.915 0,-1.994 -0.513,0.924 1.611,1.665 0,1.994 m 6.99,29.881 c -1.089,-0.747 -0.633,-1.586 -1.076,-2.494 -0.089,-0.187 -0.976,-0.25 -1.077,-0.494 -0.582,-1.478 -0.171,-3.198 -0.531,-4.983 -0.456,-2.197 -2.226,-4.372 -1.077,-5.977 0.582,4.945 5.173,8.817 3.761,13.948 m -9.139,8.963 c 0.142,0.68 -0.333,1.943 -0.539,0.993 -0.145,-0.677 0.333,-1.94 0.539,-0.993 m 0.535,-35.859 c -0.71,-5.315 -4.49,-7.794 -4.3,-13.944 4.945,0.572 3.904,6.607 4.3,11.456 0.104,1.254 1.468,1.707 0,2.488 m 6.989,-29.38 c 0.152,1.142 1.881,5.166 0.539,4.482 0.177,-1.446 -1.887,-5.16 -0.539,-4.482 m -6.989,54.282 c -0.209,-0.503 0.531,-0.87 0.538,-0.994 0.284,-3.723 1.361,-5.879 1.614,-8.468 0.114,-1.165 -0.544,-2.365 -0.538,-3.486 0.013,-3.045 1.526,-5.939 1.077,-8.962 0.17,-0.801 0.766,0.035 0.538,0.994 0.044,1.073 -0.06,2.042 0,2.989 0.098,1.665 1.054,3.514 1.076,4.979 0,-0.022 -1.057,0.424 -1.076,0.497 -0.146,0.465 0.55,0.621 0.538,0.994 -0.086,1.953 -0.44,2.217 -1.076,3.489 -1.165,2.327 -1.789,4.426 -1.615,6.974 0.107,1.627 2.019,3.511 2.153,5.477 0.13,1.934 0.278,4.02 -2.153,5.48 -0.557,-1.552 -1.45,-2.986 -1.611,-4.483 -0.327,-2.986 1.003,-4.353 0.535,-5.48 m -5.376,16.433 c 0.12,-0.383 0.013,-0.978 0.538,-0.994 -0.003,-0.278 0.434,-0.566 0.538,0 -1.082,1.46 -0.484,1.409 -1.614,2.492 0.557,-0.539 -2.052,-0.089 -1.077,0.997 -1.769,-0.022 -2.057,-1.421 -2.149,-2.992 1.152,-1.073 3.001,-0.256 3.764,0.497 m 16.133,-54.782 c -0.425,-0.343 -1.197,-2.773 0,-2.986 -0.586,1.276 1.633,2.374 0,2.986 M 104.096,287.519 c -0.983,-1.181 -1.404,-2.881 -0.538,-4.483 4.701,-1.472 5.146,5.499 0.538,4.483 m -4.84,16.433 c -0.163,-0.674 -0.765,-0.949 -0.538,-1.991 2.501,-0.605 2.585,1.978 0.538,1.991 m -3.762,-2.988 c -0.124,-0.308 0.813,-1.068 1.079,-0.997 1.412,0.401 -0.35,2.802 -1.079,0.997 m -1.075,-16.931 c 0.083,-0.589 -0.092,-1.415 0.538,-1.497 0.328,0.469 1.252,1.839 -0.538,1.497 M 265.417,483.24 c 0.31,0.301 1.26,2.362 0,2.488 0.323,-0.886 -1.577,-2.07 0,-2.488 M 150.343,217.794 c 2.339,4.378 -5.249,0.861 0,0 m -39.79,46.814 c 0.538,0 0.636,-0.402 1.073,-0.497 -0.003,0.497 0.437,0.592 0.535,0.994 -0.538,0 -0.636,0.406 -1.073,0.498 0.003,-0.498 -0.436,-0.592 -0.535,-0.995 m 12.906,63.746 c -0.452,-0.783 -2.326,-2.774 -1.076,-3.486 -0.373,1.659 1.108,0.804 1.615,0.5 -0.212,1.517 1.412,2.536 -0.539,2.986 m 1.612,-31.873 c 0.161,1.314 -1.124,1.286 -2.15,1.495 -0.487,-1.609 1.754,-0.701 2.15,-1.495 m -1.612,-5.977 c -0.43,-1.722 0.596,-2.099 1.074,-2.985 2.497,0.341 3.922,1.671 4.302,3.982 -2.571,0.567 -2.973,-0.427 -5.376,-0.997 m -1.076,12.948 c -1.576,-0.481 -1.209,0.44 -2.153,0.997 -0.424,0.25 -0.753,0.276 -1.076,0.497 -0.443,0.311 -0.19,0.497 -1.073,0.5 0.523,-0.003 -2.65,-0.971 -2.691,-0.997 -0.826,-0.497 -4.306,-5.053 -4.302,-4.979 -0.133,-2.98 2.526,-4.138 6.993,-4.483 2.055,0.75 2.08,3.387 4.302,3.983 0.564,2.083 -1.136,3.378 0,4.482 m 34.95,-15.436 c 2.317,1.434 4.66,-2.596 6.455,-1.495 -1.466,0.564 -5.632,4.202 -6.455,1.495 m -48.936,0 c 0.959,-0.44 1.371,-1.39 3.229,-0.997 2.615,3.618 -3.767,5.784 -3.229,0.997 m 15.601,13.945 c -0.051,-0.788 -1.374,-0.39 -1.077,-1.497 0.805,0.085 1.982,-0.175 2.15,0.5 -0.421,0.11 -1.061,0.013 -1.073,0.497 0.297,0 0.607,0.402 0,0.5 m -8.07,232.573 c 1.042,1.491 2.169,6.363 -0.538,6.974 -0.608,-1.703 -1.244,-6.014 0.538,-6.974 m 55.385,-338.647 c 0.012,-2.326 2.678,-2.326 2.69,0 -0.706,0.634 -1.981,0.634 -2.69,0 M 49.787,336.818 c 0.717,-0.645 1.999,-0.655 2.152,0.501 -0.713,0.649 -2.002,0.656 -2.152,-0.501 m 6.993,18.432 c -0.032,-0.305 -0.086,-0.593 -0.538,-0.497 -0.165,-1.315 0.744,-1.637 2.149,-1.498 0.152,1.305 -0.196,2.143 -1.611,1.995 M 181.532,235.725 c 0.075,-0.181 -0.589,0.547 -0.538,0.497 -0.387,0.377 -0.168,0.525 -0.539,0.994 -1.633,2.111 -6.173,0.215 -6.99,-1.988 -0.234,-0.63 0.298,-2.366 0.538,-3.986 0.558,-3.742 1.872,-6.316 4.303,-6.471 1.295,-0.085 2.263,0.842 4.302,1.988 0.69,1.776 -0.852,3.334 -1.076,4.98 -0.216,1.608 0.534,2.678 0,3.986 m -1.077,2.988 c 4.673,5.157 -6.629,10.488 -4.84,1.494 1.307,-0.785 2.302,-1.858 4.84,-1.494 M 141.2,293.496 c 2.058,-0.953 1.96,-0.611 3.767,0 1.159,0.386 2.286,-0.145 2.147,0.994 -1.969,0.867 -3.894,-0.488 -5.914,-0.994 m 42.484,-21.416 c 0.105,-0.079 -0.912,1.079 -0.538,0.993 -3.216,0.703 -4.163,-1.724 -4.302,-6.473 0.69,-1.352 2.605,-1.567 3.226,-2.989 -1.596,-1.341 -4.464,-1.509 -5.379,-3.482 0.253,-2.264 2.391,-2.77 5.379,-2.491 -0.836,2.323 -0.576,3.324 0,4.485 1.07,2.147 3.526,3.128 3.764,4.977 0.288,2.289 -1.212,4.293 -2.15,4.98 m -88.19,108.568 c -1.267,0.421 1.481,1.222 0.541,2.989 -1.069,0.006 -0.685,1.354 -2.153,0.994 -0.114,-0.558 -0.598,-0.776 -1.073,-0.994 -0.225,-1.2 0.98,-1.083 0.535,-2.491 -0.301,0 -0.611,-0.403 0,-0.498 0.171,1.65 1.664,-1.947 2.15,0 m -8.603,0 c -0.689,0.023 -0.743,0.636 -1.615,0.498 -0.836,-1.226 1.831,-1.466 1.615,-0.498 M 163.25,273.073 c -0.44,-1.778 1.143,-2.471 2.152,-1.49 0.161,1.311 -0.747,1.633 -2.152,1.49 m -19.897,22.911 c -2.026,-0.567 -2.447,0.478 -3.229,-0.997 0.962,0.301 2.235,-1.46 2.691,0 -0.33,0.029 -0.636,0.076 -0.539,0.497 0.418,0.117 1.064,0.016 1.077,0.5 m -74.208,75.699 c -0.741,-0.639 -0.934,-2.979 0.537,-2.989 0.569,1.653 1.594,2.16 -0.537,2.989 m 97.327,-154.386 c 1.688,-0.228 2.406,0.431 2.153,1.994 -1.481,1.548 -3.821,-0.62 -2.153,-1.994 m 1.615,-7.472 v 1.995 c -0.934,0.038 -1.669,-0.114 -2.15,-0.497 -0.165,-1.313 0.748,-1.634 2.15,-1.498 M 62.157,358.238 c -0.69,-0.658 -0.69,-1.84 0,-2.488 2.415,-0.257 1.768,2.603 0,2.488 M 191.75,264.111 c 0.425,1.719 -0.503,2.188 -1.614,2.489 0.12,-0.941 -0.608,-1.099 -0.538,-1.992 0.728,-0.155 1.029,-0.709 2.152,-0.497 m 132.283,200.698 c -0.816,-0.7 -1.699,-2.418 -0.537,-3.485 2.225,-0.469 3.295,3.697 0.537,3.485 m -8.603,-30.872 c -0.026,0.684 0.253,1.089 0.537,1.491 h -1.079 c -0.599,-0.715 -0.579,-1.212 0.542,-1.491 m -18.824,-1.998 c -0.45,-0.576 -0.71,-1.333 -0.539,-2.485 1.704,-0.734 2.587,2.862 0.539,2.485 m 45.168,67.234 c -0.114,0.39 -0.45,0.582 -1.076,0.5 -1.386,-1.089 -2.773,-2.947 -1.608,-4.983 2.799,-0.262 2.732,2.118 2.684,4.483 M 300.37,473.774 c 1.494,2.381 -1.764,1.21 0,0 m 1.076,42.332 c 0.358,0.995 1.859,2.128 0,2.489 0.323,-0.884 -1.576,-2.064 0,-2.489 m 1.618,-45.817 c 1.089,1.333 0.503,1.893 1.073,2.988 -1.788,0.2 -3.004,-2.684 -1.073,-2.988 m 8.598,-23.901 c -1.415,0.148 -1.76,-0.694 -1.615,-1.994 1.419,-0.153 1.767,0.689 1.615,1.994 m 31.727,37.349 c -5.493,0.336 -7.604,-7.221 -4.299,-10.46 3.82,1.102 5.666,6.151 4.299,10.46 m 54.849,-66.233 c -0.171,-0.678 -0.765,-0.956 -0.538,-1.998 1.501,-0.798 1.488,2.153 0.538,1.998 m -267.25,-37.853 v -1.494 h 1.076 c -0.006,0.5 0.434,0.592 0.532,0.997 -0.687,0.029 -0.741,0.636 -1.608,0.497 m 264.022,43.824 c -1.945,-2.35 3.152,-0.66 0,0 m -49.469,66.236 c 0.273,0.152 1.926,0.263 2.15,0.497 0.447,0.471 -0.247,1.855 0.538,1.994 -2.163,-0.491 -4.387,-0.915 -4.301,-3.485 1.101,-0.301 1.145,0.737 1.613,0.994 m 39.794,-78.688 c 1.405,-0.139 2.311,0.187 2.145,1.498 -1.402,0.139 -2.306,-0.184 -2.145,-1.498 m -43.022,75.699 c 0.923,0.807 1.335,2.083 1.076,3.986 -2.409,-0.051 -2.459,-2.922 -1.076,-3.986 m -75.82,-20.916 c -0.085,0.919 1.27,4.081 0,2.989 0.583,-1.273 -1.636,-2.375 0,-2.989 m 84.962,36.356 c -0.848,-1.206 -2,-2.128 -1.614,-4.48 3.096,-0.409 3.124,3.302 1.614,4.48 m -34.949,-46.315 c 0.87,0.687 2.658,0.484 2.146,1.991 -3.02,-0.681 -5.679,-1.709 -6.452,-4.48 1.612,-1.063 2.956,1.428 4.306,2.489 m -46.252,45.32 c 0.121,1.096 1.317,3.711 0.538,3.986 -0.237,-0.981 -1.994,-3.08 -0.538,-3.986 m 2.153,-12.951 c -0.307,1.333 1.593,3.116 0,3.986 0.624,-1.618 -1.643,-3.061 0,-3.986 m 14.518,-51.294 c 0.032,0.858 -0.411,1.276 -1.073,1.498 -0.769,-0.732 -0.789,-1.932 1.073,-1.498 m -18.279,57.771 c -0.291,1.47 1.526,3.515 0.532,3.983 -0.234,-0.978 -1.988,-3.08 -0.532,-3.983 m 5.914,10.46 c 0.456,-3.422 -1.992,-6.778 -0.539,-9.465 0.33,5.508 3.556,10.979 2.153,16.436 -0.354,-1.332 -0.228,-3.112 -1.076,-3.986 -0.431,2.555 1.133,3.267 1.076,5.48 -2.235,-0.307 -1.174,-2.631 -1.614,-4.479 -0.444,-1.877 -2.764,-4.195 -1.077,-5.487 0.26,0.593 0.573,1.134 1.077,1.501 m -8.605,-26.396 c 0.526,0.848 1.969,3.058 0.538,3.486 0.146,-1.792 -0.993,-2.4 -1.076,-3.986 0.437,-0.737 0.162,-0.111 0.538,0.5 m 2.153,-30.378 c -0.032,-0.307 -0.083,-0.589 -0.538,-0.5 v -0.994 c 1.323,-0.776 1.579,1.69 0.538,1.494 m -0.538,90.638 c -0.418,-1.108 -1.133,-1.944 -1.077,-3.489 1.666,-0.339 2.238,2.852 1.077,3.489 m -0.538,-101.594 v -1.498 c 1.567,-0.728 1.567,2.225 0,1.498 m 5.913,55.776 c 1,0.076 0.329,1.684 1.076,1.991 -1.639,0.681 -1.513,-3.858 -1.076,-1.991 m 1.076,23.408 c 0.197,0.858 1.627,3.077 0.539,3.482 -0.589,-0.497 -2.014,-2.713 -0.539,-3.482 m 4.299,-58.269 c 3.983,-0.034 4.509,3.128 5.382,5.974 -2.317,1.108 0.535,4.065 -2.152,4.98 -2.197,-2.422 -5.635,-7.383 -3.23,-10.954 m 6.455,88.15 c 0.073,0.728 0.421,2.21 -0.538,2.488 -0.661,-1.88 -1.801,-3.311 -1.611,-5.976 1.14,-0.07 2.032,2.288 2.149,3.488 m -5.378,-104.583 c 0.085,-0.589 -0.089,-1.415 0.538,-1.498 0.329,0.466 1.253,1.837 -0.538,1.498 m 0.538,87.65 c -1.735,0.446 -0.757,-1.624 -1.615,-1.995 1.419,-0.149 1.387,1.042 1.615,1.995 m 1.615,18.924 c 0.158,0.304 1.339,1.916 0,1.995 -0.159,-0.31 -1.336,-1.919 0,-1.995 m -4.3,-31.372 c -0.62,-0.592 -0.607,-1.767 -0.538,-2.992 0.298,-1.348 1.469,3.198 0.538,2.992 m 13.528,-265.769 c -0.042,-0.37 -0.102,-0.719 -0.668,-0.605 v -1.21 c 1.64,-0.939 1.959,2.049 0.668,1.815 m 279.036,67.095 c 1.745,-0.171 2.872,0.221 2.669,1.813 -1.745,0.168 -2.868,-0.222 -2.669,-1.813 M 296.118,245.896 c -0.807,0.057 -0.414,-0.883 0,0 m -9.348,-14.508 c 0.107,-0.713 -0.114,-1.716 0.668,-1.815 0.408,0.568 1.551,2.233 -0.668,1.815 m 96.13,-53.802 c 0.102,-0.706 -0.114,-1.716 0.664,-1.811 0.413,0.561 1.555,2.229 -0.664,1.811 m -88.786,72.543 c 1.549,-0.529 1.532,3.073 0.668,1.209 -0.373,-0.538 -2.01,-2.647 -0.668,-1.209 m 271.69,55.004 c 2.488,-1.497 6.692,-0.26 6.011,3.02 -3.517,0.37 -5.055,-1.063 -6.011,-3.02 m -12.011,-25.386 c -0.539,-3.663 3.058,-0.402 0,0 m -38.721,25.386 c -0.038,-0.367 -0.094,-0.715 -0.668,-0.605 v -1.209 c 1.647,-0.94 1.966,2.055 0.668,1.814 m -21.358,78.583 c -1.014,-0.852 -2.109,-2.935 -0.668,-4.233 2.764,-0.57 4.093,4.49 0.668,4.233 m 6.676,-21.156 c -1.403,-2.391 -4.223,-3.809 -2.675,-7.253 -1.073,-1.466 -3.837,-4.549 -2.665,-6.043 1.607,0.635 1.329,2.83 2,3.624 1.602,1.89 4.762,2.599 6.009,4.838 -0.171,2.266 -1.048,3.886 -2.669,4.834 m 29.369,45.338 c -2.169,-5.143 -1.751,-11.117 -2.669,-16.926 -0.985,-6.237 -2.555,-13.22 -4.005,-18.739 -0.979,-3.719 -1.741,-7.499 -2.672,-11.488 -0.573,-2.466 -1.358,-4.758 -2.004,-7.256 -1.025,-3.985 -1.525,-8.496 -2.669,-10.877 -1.342,-2.801 -3.263,-5.129 -4.001,-7.86 -1.142,-1.124 -3.049,-1.137 -4.008,-1.812 -1.886,-1.329 -4.372,-5.4 -4.672,-7.252 -0.732,-4.501 0.912,-10.383 4.672,-10.883 4.87,-0.64 11.372,9.126 11.346,12.697 -0.013,2.099 -2.529,4.324 -2.669,6.644 -0.031,0.523 0.446,2.213 0.668,3.024 0.912,3.359 0.643,7.136 1.333,10.276 0.165,0.728 1.035,1.678 1.336,2.422 0.402,0.978 0.405,1.976 0.668,3.02 1.07,4.27 1.539,8.37 2.672,12.093 0.579,1.893 1.668,3.628 2.001,5.439 0.342,1.839 -0.175,3.574 0,5.438 0.462,4.819 2.884,10.593 3.34,15.114 0.212,2.108 -0.329,4.106 0,6.047 0.645,3.757 3.102,6.793 2.669,10.275 -0.15,0.466 -0.558,0.7 -1.336,0.604 m -6.009,-58.03 c 3.809,0.788 5.8,3.213 6.009,7.252 h -2.001 c -0.818,-2.887 -4.53,-3.156 -4.008,-7.252 M 285.437,216.274 c 0.77,-1.965 -2.042,-3.716 0,-4.834 0.269,1.016 2.216,5.414 0,4.834 m 72.761,-47.752 c -0.035,-0.775 -0.854,-0.838 -0.668,-1.814 h 1.333 c 0.756,0.868 0.722,1.473 -0.665,1.814 m -38.717,-18.741 c 0.13,-0.097 -1.133,1.311 -0.668,1.206 -3.992,0.855 -5.167,-2.092 -5.34,-7.857 0.857,-1.643 3.235,-1.902 4.005,-3.624 -1.979,-1.631 -5.54,-1.837 -6.677,-4.23 0.313,-2.745 2.967,-3.362 6.677,-3.023 -1.036,2.82 -0.716,4.033 0,5.441 1.326,2.609 4.381,3.799 4.672,6.04 0.361,2.784 -1.507,5.215 -2.669,6.047 m -14.021,47.752 c -1.484,-0.925 -2.253,-4.258 1.336,-3.625 -0.009,1.606 0.37,3.559 -1.336,3.625 m 10.014,-88.251 c 5.799,6.262 -8.228,12.73 -6.009,1.811 1.621,-0.949 2.855,-2.251 6.009,-1.811 m 1.336,-3.628 c 0.094,-0.218 -0.732,0.668 -0.668,0.605 -0.482,0.456 -0.209,0.639 -0.668,1.206 -2.03,2.561 -7.665,0.26 -8.678,-2.415 -0.288,-0.763 0.37,-2.868 0.669,-4.834 0.689,-4.543 2.323,-7.668 5.34,-7.858 1.605,-0.104 2.808,1.023 5.341,2.415 0.854,2.154 -1.058,4.046 -1.336,6.044 -0.269,1.954 0.665,3.251 0,4.837 m -22.696,45.333 c -0.544,-2.159 1.419,-3.001 2.672,-1.81 0.2,1.595 -0.927,1.984 -2.672,1.81 m 10.011,-93.689 c 0.012,-2.82 3.323,-2.82 3.34,0 -0.878,0.772 -2.461,0.772 -3.34,0 m -6.009,25.99 c 2.092,-0.278 2.985,0.523 2.672,2.419 -1.84,1.881 -4.746,-0.75 -2.672,-2.419 m 287.72,243.008 c -0.212,-0.82 -0.949,-1.158 -0.668,-2.425 1.861,-0.969 1.846,2.611 0.668,2.425 M 371.551,170.941 h 1.336 c 0.035,0.773 0.851,0.835 0.668,1.811 h -2.004 z m -5.34,-1.814 c -0.197,-1.583 0.244,-2.606 2,-2.419 0.209,0.817 0.95,1.152 0.668,2.419 z m 215.617,164.415 c -2.415,-2.849 3.91,-0.801 0,0 M 376.892,177.586 h 1.336 c 0.035,0.772 0.851,0.839 0.668,1.813 h -2.004 z m -12.017,15.113 c 0.271,-1.456 -1.219,-1.313 -0.672,-3.023 2.457,-0.582 2.66,2.972 0.672,3.023 m 124.166,142.053 c -1.02,-1.583 -3.717,-2.644 -4.673,-4.227 -1.13,-1.871 -0.686,-3.91 -1.336,-6.049 -0.104,-0.336 -1.134,-1.27 -1.339,-1.811 -0.323,-0.871 -0.491,-1.861 -0.668,-2.419 -1.383,-4.539 -2.248,-10.308 -3.334,-13.903 -1.756,-5.803 -2.104,-15.013 -4.672,-19.34 -0.5,-1.868 2.301,-0.737 1.333,-3.026 -1.564,-4.499 -9.503,-7.927 -4.008,-13.296 11.89,0.189 3.523,13.849 8.683,18.741 0.352,2.203 -2.934,2.71 -1.336,4.225 0.168,12.227 8.136,19.429 10.682,29.018 0.434,1.64 1.155,3.973 1.336,5.439 0.281,2.314 -0.456,4.859 0,7.255 0.117,0.624 0.981,1.53 1.333,2.415 1.377,3.474 2.282,6.63 2.004,9.071 -0.583,-1.726 -1.425,-3.651 -2.004,-5.439 -0.706,-2.191 -0.672,-4.581 -2.001,-6.654 M 363.539,186.655 c -0.181,-0.826 0.414,-2.358 0.664,-1.209 0.184,0.824 -0.411,2.359 -0.664,1.209 M 300.12,74.222 v 2.419 c -1.159,0.044 -2.074,-0.14 -2.669,-0.605 -0.202,-1.596 0.924,-1.982 2.669,-1.814 M 409.6,204.185 c -0.954,-0.88 -0.981,-2.34 1.336,-1.815 0.035,1.042 -0.516,1.552 -1.336,1.815 m -0.668,15.113 c -1.036,-1.077 -1.836,-2.365 -2.668,-3.625 -0.846,-0.987 -8.073,-0.576 -6.009,-2.422 2.995,2.327 11.067,0.054 12.016,4.229 -0.638,1.039 -2.095,1.33 -3.339,1.818 m -8.677,56.217 c 3.631,-0.178 5.259,-1.418 9.345,-2.419 -0.801,-2.466 1.133,-1.329 2.004,-1.811 0.364,-0.209 0.209,-1.542 0.667,-1.817 0.444,-0.269 1.501,0.183 2.001,0 0.469,-0.168 0.83,-1.621 1.336,-1.814 0.869,-0.326 1.517,0.643 2.004,0.605 1.466,-0.117 2.106,-2.356 3.337,-1.209 0.592,1.63 -1.333,0.699 -2.001,1.209 -1.063,0.813 -0.936,2.45 -2.004,3.026 -0.788,0.424 -2.624,-0.459 -2.672,0.602 1.798,-0.415 1.292,1.25 2.004,1.813 -1.674,1.527 -2.114,-1.158 -3.339,-1.813 -1.263,2.282 -6.449,1.009 -7.341,3.628 -1.973,0.43 -4.711,0.164 -5.341,1.813 1.165,0.558 1.472,1.891 1.333,3.628 -2.21,1.973 -5.307,2.042 -6.674,-0.604 -1.146,-2.302 1.979,-3.774 0.668,-4.233 -1.44,1.089 -2.361,1.713 -2.004,-1.209 2.137,0.69 5.533,-0.738 6.012,-0.604 0.456,0.129 -0.244,1.253 0.665,1.209 m -81.442,-49.567 c -1.434,-1.24 -0.348,-2.874 1.333,-3.026 1.061,0.909 0.979,3.451 -1.333,3.026 m 95.459,-15.714 c 0.276,-1.457 -1.218,-1.317 -0.665,-3.026 2.014,-0.931 1.758,3.127 0.665,3.026 m 1.336,6.04 c -0.348,5.36 2.033,11.448 0.668,15.718 -1.553,-4.796 0.153,-14.923 -3.339,-16.319 1.93,-0.608 3.13,-2.216 4.675,0 -0.959,1.333 -1.627,-0.763 -2.004,0.601 m -3.337,-37.479 h 1.336 c -0.003,0.604 0.539,0.719 0.665,1.21 -0.854,0.034 -0.924,0.775 -2.001,0.604 z m -26.037,84.025 c 0.104,-0.713 -0.115,-1.716 0.668,-1.814 0.409,0.563 1.554,2.232 -0.668,1.814 m 21.362,32.642 h 1.336 c 0,0.604 0.542,0.719 0.668,1.209 -0.858,0.032 -0.924,0.775 -2.004,0.604 z M 260.735,230.783 c 0.098,-0.807 -2.241,-2.248 -0.668,-2.422 0.371,0.383 2.713,1.827 0.668,2.422 m 68.759,-90.673 c 0.526,2.086 -0.623,2.656 -2.004,3.02 0.153,-1.14 -0.753,-1.332 -0.668,-2.418 0.903,-0.188 1.28,-0.858 2.672,-0.602 m -46.729,66.493 c -0.171,-4.891 2.691,3.999 0,0 m 134.847,137.82 c 2.068,-0.228 2.716,2.912 0.668,3.023 -0.563,-0.703 -0.883,-1.618 -0.668,-3.023 M 270.748,262.82 c -0.038,-0.371 -0.098,-0.716 -0.668,-0.605 v -1.209 c 1.643,-0.937 1.963,2.055 0.668,1.814 m 24.034,-109.411 h -2.004 c -0.12,-1.32 0.548,-1.925 2.004,-1.813 z m 118.155,35.662 c -0.769,-0.713 -0.753,-2.133 -0.666,-3.625 0.372,-1.633 1.821,3.881 0.666,3.625 m 53.406,73.749 c -0.038,-0.371 -0.102,-0.716 -0.668,-0.605 v -1.209 c 1.642,-0.937 1.963,2.055 0.668,1.814 m -0.668,186.176 c 0.401,-1.069 -1.957,-2.504 0,-3.017 0.446,1.207 2.304,2.584 0,3.017 m -6.009,-105.178 c -0.558,-0.7 -0.88,-1.618 -0.668,-3.02 2.114,-0.89 3.21,3.476 0.668,3.02 m 2.675,-83.417 c 1.519,-0.168 2.504,0.146 2.666,1.206 -1.697,0.317 -2.587,1.033 -2.666,-1.206 m 5.341,129.966 c 1.354,1.614 0.627,2.295 1.333,3.625 -2.223,0.24 -3.727,-3.255 -1.333,-3.625 m 2.662,-103.364 c -0.855,0.028 -0.921,0.769 -2.001,0.604 -1.035,-1.491 2.267,-1.782 2.001,-0.604 m -99.518,-6.692 c 0.662,-0.466 2.017,-0.472 2.669,0.073 -0.171,-1.863 -0.554,-3.413 -0.972,-4.951 -0.431,1.709 -1.042,3.361 -1.697,4.878 m -1.95,117.002 c 1.685,2.238 1.573,-3.337 0,0 m 0,7.158 c 2.27,-2.422 -1.772,-3.309 0,0 m 2.603,-30.556 c 0.043,0.192 0.939,1.01 1.297,0.652 0.453,-0.46 -0.649,-0.703 -0.649,-0.652 0.025,-0.484 -0.095,-3.948 -0.648,-3.255 -0.27,0.342 -0.098,2.805 0,3.255 m 2.595,32.496 c -1.399,4.207 1.75,-5.229 0,0 m 0.655,-3.897 c 0.244,1.235 0.818,-0.414 0.646,-1.295 -0.246,-1.24 -0.829,0.409 -0.646,1.295 m 1.954,-63.052 c -1.187,2.22 0.079,3.118 0,5.848 1.111,0.031 1.68,-0.482 1.94,-1.302 0.599,-2.241 -1.519,-0.617 -1.94,-1.946 -0.257,-0.783 1.149,-0.321 1.297,-0.653 0.612,-1.392 -1.291,-2.302 -1.953,-3.897 -1.595,0.073 -0.135,2.149 0.656,1.95 m -0.656,40.949 c 1.678,2.241 1.575,-3.337 0,0 m 0,7.803 c 0.938,-0.149 0.235,-1.941 1.299,-1.949 -0.735,-2.09 -1.852,0.626 -1.299,1.949 m 1.299,19.501 c 1.133,-1.044 1.411,-2.925 1.297,-5.201 -1.272,0.902 -2.089,4.219 -1.297,5.201 m 1.949,-10.402 h -1.295 v 1.308 h 1.295 z m 2.606,-1.298 c -0.523,-2.257 0.973,-2.498 0.646,-4.553 -1.852,-0.617 -3.222,-0.613 -5.201,0.652 0.17,1.52 2.858,0.377 3.254,0 0.88,0.203 0.538,1.628 0.649,2.603 -0.2,0.88 -1.63,0.538 -2.606,0.649 -2.063,0.893 2.299,0.639 3.258,0.649 m -2.606,-6.502 c 2.353,0.613 0.909,-2.562 1.305,-3.898 -3.1,0.082 -0.867,1.472 -1.305,3.898 m 4.553,-14.946 c -0.937,-0.779 -1.092,-2.982 -1.301,-5.205 -0.091,-1.007 0.485,-3.304 0,-5.85 -2.394,-0.605 -1.181,3.428 -0.646,3.9 -2.188,0.671 -1.01,-2.022 -1.301,-3.251 h -2.6 c -0.597,2.916 -1.091,7.266 0,10.406 0.099,0.307 1.967,1.447 1.948,1.298 -0.013,-0.073 -0.071,3.507 0,3.248 -0.184,0.7 -1.28,0.447 -1.305,1.298 -0.348,1.446 1.244,0.928 1.305,1.956 0.804,2.099 -2.102,0.494 -1.305,2.6 1.358,-1.429 2.106,0.572 3.258,-0.653 -1.441,-3.431 0.592,-4.178 -0.652,-7.8 0.105,-0.766 1.183,-0.551 1.95,-0.649 -0.725,-0.802 -0.567,-1.336 0.649,-1.298 m -2.599,-29.907 c 0.984,2.299 1.234,-1.193 0.652,-1.301 -0.389,-0.063 -0.817,0.912 -0.652,1.301 m 5.669,-52.345 c -0.252,-2.21 1.713,-2.4 2.008,-4.103 2.362,-1.061 3.441,2.026 4.004,0.601 -1.652,-3.947 -3.324,-7.873 -4.004,-12.694 -4.575,-0.696 -4.72,-5.397 -8.677,-6.651 0.535,2.095 -0.995,2.324 -0.668,4.232 -2.036,-0.028 -3.401,0.555 -4.005,1.815 0.63,0.984 1.095,2.121 1.421,3.381 0.906,-0.475 0.437,-2.328 1.646,-2.486 1.596,1.529 -0.965,1.206 -0.645,3.248 0.506,0.15 1.285,0.016 1.297,0.653 -0.892,-0.067 -1.646,-0.273 -2.152,-0.725 0.246,1.168 0.404,2.422 0.437,3.786 h 1.42 c 0.295,-0.099 0.596,-0.222 0.948,-0.456 -1.362,2.675 1.855,2.957 1.953,3.238 0.51,1.533 -0.352,2.239 0,4.556 1.801,0.548 3.447,1.07 5.017,1.605 m -1.765,77.047 c 1.867,1.02 1.012,-4.352 -0.656,-3.9 -0.016,1.532 1.124,1.916 0.656,3.9 m 5.811,-75.502 c 0.07,-0.08 0.235,-0.152 0.63,-0.213 -0.474,0.982 3.151,0.982 2.672,0 -0.56,-0.699 -0.88,-1.617 -0.668,-3.019 -1.896,0.297 -0.963,3.159 -4.004,2.415 -1.15,-1.532 1.016,-2.343 -1.336,-2.415 -1.327,0.168 0.737,1.491 -1.092,1.769 1.335,0.459 2.602,0.944 3.798,1.463 m 4.195,59.119 c -0.313,-1.117 -0.352,-2.247 -0.959,-3.102 -0.811,0.311 -1.096,0.104 -1.191,-0.297 -0.319,0.434 -0.35,1.13 -1.415,0.893 -0.503,-0.78 -1.263,-1.321 -1.734,-2.128 -0.055,0.076 -0.123,0.134 -0.162,0.218 0.342,3.543 2.783,3.467 5.461,4.416 m 0.443,-1.902 c 0.371,0.982 1.57,1.447 2.001,2.412 0.079,0.181 0.11,0.377 0.174,0.564 1.823,0.823 3.292,1.598 4.92,2.307 2.45,1.071 4.464,2.106 6.401,3.125 -0.082,-0.519 0.006,-0.803 0.522,-0.55 0.029,0.227 0.124,0.569 0.234,0.946 1.073,0.567 2.141,1.131 3.248,1.684 0.649,0.323 1.299,0.618 1.941,0.896 -0.292,-0.579 -0.589,-1.158 -0.751,-1.713 -1.288,-4.368 -1.149,-8.062 -4.004,-9.671 0.896,-0.398 1.244,-1.298 1.336,-2.422 -1.732,0.558 -1.817,0.383 -2.675,-0.193 -0.849,-0.072 -1.712,-0.184 -2.58,-0.307 0.18,1.194 0.545,2.374 1.247,3.527 1.549,-0.197 2.561,0.098 3.34,0.601 0.098,1.497 0.127,2.935 -1.336,3.024 -2.198,-1.609 -3.251,-4.255 -3.922,-7.25 -3.492,-0.513 -7.057,-1.14 -10.282,-0.585 0.192,1.212 -0.273,2.389 0.186,3.605 m 10.994,-5.119 c 0.342,0.079 0.678,0.158 1.014,0.237 -0.064,-0.209 -0.076,-0.376 -0.072,-0.528 -0.368,0.031 -0.694,0.104 -0.942,0.291 m 3.024,-2.744 c -1.197,-0.95 -0.567,-3.553 -1.447,-4.787 -0.436,-0.197 -0.892,-0.421 -1.361,-0.623 -0.177,-0.01 -0.313,-0.055 -0.528,-0.03 0.23,1.305 0.218,2.622 0.148,3.939 1.102,0.589 2.15,1.234 3.203,1.868 0,-0.117 0.02,-0.216 -0.015,-0.367 m 2.177,-5.702 c -0.945,-0.896 -2.035,-1.658 -3.683,-1.862 0.066,0.26 0.129,0.523 0.192,0.783 0.894,0.632 1.956,1.091 3.491,1.079 m -2.597,-8.449 c -1.635,0.275 1.082,1.409 1.949,1.297 -0.481,-0.601 -1.181,-0.984 -1.949,-1.297 m -1.957,6.499 c 0.006,0.006 0.015,0.012 0.025,0.019 -0.004,-0.007 -0.006,-0.013 -0.01,-0.019 z m 0.658,-11.048 c -1.9,-0.951 -0.987,-0.054 0.646,0.648 1.355,0.576 0.373,-0.139 -0.646,-0.648 m -3.901,-3.898 c -0.31,0.042 -0.521,-0.012 -0.718,-0.082 0.09,0.4 0.175,0.805 0.266,1.196 0.37,0.175 0.763,0.267 1.099,0.185 0.12,-0.558 -0.254,-0.618 -0.647,-0.656 0.014,-0.63 0.792,-0.506 1.295,-0.643 -0.161,-0.822 -1.288,-0.661 -1.295,0 m -1.446,-0.595 c -0.56,0.2 -0.224,0.849 0.415,1.346 -0.136,-0.45 -0.279,-0.896 -0.415,-1.346 m -6.36,23.338 c -1.424,-1.978 -4.159,0.753 0,0 m -8.604,-70.263 c -0.152,-4.072 -4.04,-0.554 0,0 m -8.009,-12.09 c -1.688,1.146 0.614,2.118 -0.665,3.628 0.535,-0.32 1.079,-0.63 2,-0.605 -0.288,-1.149 -1.916,-1.091 -1.335,-3.023 m -2.669,-16.924 c -2.333,2.14 -1.036,3.977 0,6.651 1.006,2.612 1.838,5.505 2.669,7.249 0.028,1.036 -0.498,1.565 -1.333,1.815 0.434,1.025 1.529,0.383 1.333,-0.605 2.181,1.253 2.968,3.761 2.671,7.256 -0.902,-1.469 -1.336,-0.377 -2.003,-1.21 -2.561,0.668 2.507,2.4 2.003,1.21 1.317,1.019 1.959,2.653 4.002,3.02 -3.248,-8.342 -6.392,-16.776 -9.342,-25.386 m -16.69,-39.897 c -2.564,0.62 0.609,3.516 0.668,5.445 3.017,-1.032 -0.155,-3.933 -0.668,-5.445 m -1.343,-6.047 c -0.303,-1.216 -1.247,-0.488 -0.661,1.817 0.434,1.7 0.776,-1.396 0.661,-1.817 m 0,16.326 c 3.901,-1.371 0.305,-5.132 0,-7.861 -2.748,1.085 0.507,5.024 0,7.861 m -3.33,-11.489 c 1.165,1.235 -0.5,1.187 0.668,2.421 0.897,-0.398 1.241,-1.294 1.333,-2.421 z m -2.007,-18.738 c -1.43,-3.865 -3.289,-7.658 -4.672,-11.485 -1.406,-3.906 -2.377,-8.105 -4.002,-12.09 -0.779,-1.909 -2.016,-3.533 -2.674,-5.438 -0.641,-1.871 -0.653,-4.138 -1.334,-6.047 -0.404,-1.14 -1.513,-2.353 -1.997,-3.625 -0.589,-1.523 -0.9,-2.748 -1.339,-4.236 -1.168,2.352 1.282,4.752 2.007,7.256 0.788,2.761 0.542,5.74 1.329,8.462 0.096,0.322 1.261,0.985 1.334,1.209 0.392,1.165 0.918,2.935 1.336,4.236 1.494,4.616 1.648,7.864 5.34,10.273 -0.041,1.754 -0.073,4.773 0.671,6.647 -0.133,-0.332 0.896,1.955 0.668,1.815 0.05,0.031 1.276,-0.782 1.332,-0.605 0.089,0.263 -0.785,1.536 -0.664,2.415 0.002,0.054 0.522,1.286 0.664,1.818 0.368,1.342 1.454,2.165 2.001,3.625 0.852,2.257 1.418,4.602 2.007,7.259 2.35,-2.913 -0.553,-7.576 -2.007,-11.489 m -5.336,-3.023 c 2.332,6.667 4.162,10.428 5.336,17.528 2.404,-0.819 1.109,-2.542 0.668,-4.229 -0.266,-1.019 -1.721,-2.751 -2.001,-3.624 -0.468,-1.466 -0.142,-3.398 -0.668,-4.838 -0.113,-0.317 -1.256,-0.985 -1.332,-1.209 -0.431,-1.282 -0.341,-3.049 -1.339,-4.233 0.275,-2.181 -1.215,-0.83 -0.664,0.605 m 2.671,29.02 c -0.972,1.624 -2.828,3.277 -2.671,4.837 -0.045,-0.459 2.554,0.783 1.335,2.409 2.124,-3.314 4.85,-6.081 4.669,-11.478 -2.358,-0.311 -2.219,2.352 -3.333,4.232 m -1.478,55.124 c 0.066,-0.034 0.119,-0.028 0.18,-0.053 -0.01,-0.022 -0.026,-0.044 -0.038,-0.067 -0.066,0.02 -0.121,0.054 -0.183,0.074 0.009,0.018 0.027,0.028 0.041,0.046 m 7.486,-46.06 c 1.106,-2.837 -0.386,-4.214 -0.668,-7.253 -3.375,1.171 -3.795,5.024 -5.34,7.857 2.582,0.32 3.257,-1.076 6.008,-0.604 m -13.355,-6.652 c -0.403,-2.709 0.47,-5.534 -0.668,-8.461 -0.362,-0.947 -1.764,-1.387 -2.002,-2.416 -0.861,-3.754 -0.363,-7.104 -1.329,-10.88 -0.937,-3.648 -1.833,-5.155 -3.343,-7.865 -1.156,-2.067 -1.643,-3.386 -3.337,-5.438 -0.364,-0.434 -0.727,-2.33 -2.004,-1.811 -0.877,2.206 -1.696,5.132 -3.337,7.858 2.426,1.212 3.471,1.484 5.341,4.229 0.931,1.37 1.849,3.545 1.339,7.256 -0.219,1.564 -0.475,3.7 -2.007,4.229 4.676,3.308 6.151,9.639 5.341,16.326 -0.121,1.902 4.138,-0.196 3.336,3.625 4.983,-0.364 5.914,-4.018 2.67,-6.652 m -20.021,-7.25 c -3.184,0.263 -5.796,0.045 -8.015,1.207 -1.504,0.789 -2.863,4.394 -4.673,5.442 -0.956,0.554 -3.251,0.13 -4.005,0.601 -0.155,0.102 0.168,1.156 0,1.209 -1.383,0.451 -1.817,-0.75 -2.671,-0.604 -0.615,0.107 -0.602,1.216 -2.001,1.213 -1.843,-0.013 -4.647,-1.402 -7.342,-1.818 -1.18,-0.177 -3.991,0.006 -4.004,0 -3.318,-0.8 -5.1,-3.263 -10.681,-2.412 -0.874,2.634 -2.02,5.018 -2.004,8.455 1.57,-2.333 3.805,0.163 5.34,0 1.782,-0.18 2.853,-2.392 4.673,-1.209 2.096,-0.285 1.766,1.63 3.34,1.818 v 4.229 c 3.558,0.959 7.05,0.276 10.678,1.212 1.614,0.412 2.387,1.504 4.004,1.811 3.191,0.601 5.284,0.076 8.01,1.207 0.329,0.136 1.098,1.148 1.336,1.212 1.671,0.456 3.732,0.063 4.672,1.814 0.538,-0.317 1.086,-0.631 2.004,-0.605 1.959,-1.127 -0.683,-2.203 -0.668,-2.421 0.098,-1.21 1.63,-0.678 1.336,-2.409 1.016,-0.907 4.325,-0.038 5.344,-0.609 0.813,-1.162 -1.269,-0.968 -1.34,-1.212 0.064,0.215 -0.003,-4.147 0,-4.229 0.124,-1.359 0.637,-2.685 1.34,-3.024 -2.852,-2.95 -4.848,-6.774 -4.673,-10.878 m -48.733,29.62 c 2.279,0.347 3.105,2.019 6.005,1.81 1.621,-3.371 1.285,-8.506 2.672,-12.087 -2.672,-0.803 -3.476,-3.301 -6.676,-3.628 -0.057,5.186 -1.843,8.808 -2.001,13.905 m 4.644,24.794 c 0.351,-0.096 0.706,-0.188 1.073,-0.304 0.902,-0.285 2.058,-1.175 2.599,-1.295 1.013,-0.216 2.267,0.307 3.251,0 1.336,-0.418 1.881,-1.713 3.248,-1.957 2.451,-0.424 5.401,0.275 8.453,0 1.029,-0.085 2.02,-0.376 3.001,-0.661 -0.896,-1.089 -1.697,-2.22 -1.573,-3.654 -1.479,-1.006 -1.669,-1.636 -2.666,-1.81 2.077,-1.156 -1.048,-2.631 -0.668,-4.233 1.105,2.191 2.659,3.036 4.67,3.023 -3.011,-0.057 0.294,1.824 -0.668,3.625 0.855,-0.031 0.927,-0.773 2.004,-0.605 -0.494,1.01 -0.137,2.178 0.468,3.239 0.428,-0.095 0.852,-0.181 1.283,-0.219 0.822,-0.072 1.607,-0.092 2.374,-0.085 0.896,-0.535 1.31,-1.501 1.216,-2.935 -1.118,-1.067 -2.236,0.539 -4.673,0 0.981,-2.501 -0.33,-5.815 0.665,-7.857 0.088,-0.181 1.174,-0.408 1.335,-0.604 0.485,-0.589 0.099,-1.343 0.668,-1.815 0.231,-0.192 1.045,0.127 1.336,0 1.567,-0.671 0.497,-1.39 2.669,-0.601 1.826,0.655 1.351,0 2.672,0 -0.215,0 1.488,0.494 2.001,0.601 2.639,0.551 4.793,4.056 8.012,3.024 1.003,-3.603 1.067,-1.041 0,-3.625 0.786,-0.918 2,-1.887 2.672,-3.027 0.864,-1.469 1.598,-2.472 0.664,-4.229 -1.244,0.481 -2.443,1.009 -4.004,1.21 -2.201,-4.864 -10.06,-4.597 -15.354,-6.655 -2.801,1.298 -6.107,2.127 -10.678,1.817 -1.51,-1.661 -0.886,-5.242 -4.004,-5.439 -1.304,1.843 -2.739,3.565 -5.341,4.23 -1.39,2.57 -2.013,5.835 -2.672,9.066 1.421,1.941 3.786,3.018 7.345,3.027 0.114,-1.712 -0.576,-4.147 1.332,-4.236 1.058,1.263 1.545,3.033 4.008,3.027 2.774,-0.915 2.678,-4.426 4.002,-6.652 1.855,0.124 6.876,-2.162 7.345,0.605 -0.438,2.536 -2.318,1.289 -4.008,2.422 -3.062,2.044 -5.306,6.401 -8.675,7.25 -2.365,0.594 -4.596,-0.941 -7.344,0.604 -0.042,2.206 3.754,2.944 2.004,4.837 -2.685,0.415 -3.815,-0.579 -6.009,-0.605 0.209,-1.405 -0.107,-2.32 -0.668,-3.023 0.25,-1.39 2.672,-0.807 3.34,-1.813 -3.045,-1.283 -2.561,0.046 -3.34,1.813 -0.152,0.346 -1.089,0.649 -1.336,1.21 -0.709,1.614 -0.262,4.309 -0.668,6.647 -0.373,2.16 -0.883,4.426 -1.361,6.662 m -26.874,30.248 c 0.5,0.583 0.694,1.465 0.646,2.599 0.855,-0.224 1.019,-1.143 1.944,-1.298 -0.425,-0.871 -1.387,-1.207 -2.59,-1.301 m -9.105,137.817 c -0.072,1.24 -0.462,1.177 -1.196,1.085 0.218,0.561 0.386,1.137 0.5,1.726 1.707,-0.165 2.362,1.725 0.209,1.07 0.111,0.576 0.234,1.142 0.434,1.681 0.047,0.12 0.978,0.341 1.079,0.5 0.348,0.539 0.402,1.06 0.402,1.58 1.517,-1.58 0.333,-3.774 3.125,-5.053 -1.399,-0.985 -3.66,-1.102 -4.553,-2.589 m 2.606,-161.87 c 1.327,-1.476 3.935,-2.419 3.897,-4.55 -2.64,2.78 -5.167,5.67 -7.8,8.453 1.785,0.76 2.522,-2.378 3.903,-3.903 m 1.947,-4.55 c -0.044,0.058 -1.083,0.877 -0.649,1.299 0.244,0.25 3.39,-5.142 0.649,-1.299 m -1.298,1.299 c -0.861,0.233 -1.029,1.148 -1.95,1.307 0.266,1.618 2.517,0.038 1.95,-1.307 m -3.9,-3.248 c -1.077,1.5 1.152,-1.099 1.298,-1.295 0.646,-0.899 -0.083,-0.408 -1.298,1.295 m -5.208,6.499 c 1.973,-0.405 1.789,-2.976 3.251,-3.901 1.64,-0.721 -4.134,1.175 -3.251,3.901 m 1.953,-11.694 c -2.406,1.965 1.976,2.187 0,0 m -2.599,1.943 c 1.08,1.295 -0.063,0.826 0,2.602 -2.048,-0.724 -1.472,-0.056 -3.903,0 0.162,0.709 1.298,0.444 1.304,1.298 0.634,-0.015 0.5,-0.788 0.649,-1.298 1.371,2.359 5.309,-2.374 1.95,-2.602 m -5.201,14.962 c 0.798,1.959 2.482,-0.463 3.251,-0.655 0.117,-0.558 -0.256,-0.619 -0.649,-0.653 h -1.304 c -0.114,0.554 0.256,0.614 0.655,0.653 -0.111,0.755 -1.19,0.546 -1.953,0.655 m 0,-7.814 c -0.244,-1.231 -0.826,0.424 -0.652,1.308 0.247,1.234 0.829,-0.421 0.652,-1.308 m 5.847,24.06 c 2.84,-1.254 0.07,-4.024 0,0 m -4.549,-40.955 c -0.551,0.12 -0.611,-0.25 -0.646,-0.649 -1.33,3.315 3.894,-2.558 0.646,0.649 m -3.9,18.203 c -0.07,0.11 0.633,0.994 0.649,1.295 -0.003,-0.032 -0.618,0.044 -0.649,0 1.966,2.757 1.051,-2.881 0,-1.295 m -3.897,-1.956 c 1.162,1.744 1.757,-2.521 3.245,-2.6 -0.9,-1.481 -2.241,2.036 -3.245,2.6 m -0.649,-9.744 c -0.567,0.462 -0.88,1.326 -1.304,1.949 -1.501,2.2 4.584,-4.653 1.304,-1.949 m -3.255,-3.904 c -0.547,0.123 -0.61,-0.251 -0.645,-0.649 -0.2,1.038 -1.248,2.169 -1.298,2.603 -0.292,2.162 0.595,-1.606 2.596,-1.954 -0.121,-0.735 -0.653,-0.358 -0.653,0 m -7.148,2.605 c 0.111,0.751 -0.139,1.152 -0.646,1.299 1.223,1.481 4.433,-0.691 5.199,-3.255 -1.694,-2.064 -1.52,3.213 -4.553,1.956 m -6.499,1.947 c 1.716,0.194 1.675,-1.361 1.95,-2.598 -0.95,0.563 -2.064,0.974 -1.95,2.598 m -9.469,11.447 c -0.019,0.036 -0.019,0.074 -0.035,0.108 0.016,-0.009 0.035,-0.019 0.054,-0.031 z m -4.837,6.111 c 0.317,0.439 -2.007,0.506 -1.298,0 -0.49,0.345 -0.564,0.503 0,0.648 -0.05,-0.015 2.371,0.884 1.298,-0.648 m -8.604,24.309 c -0.241,0.506 -0.105,1.307 -0.494,1.691 -0.88,0.857 -2.612,1.548 -3.242,2.596 -0.288,0.468 0.298,1.494 0,1.95 -0.871,1.307 -2.605,2.136 -3.254,3.248 -0.178,0.301 -0.26,0.601 -0.307,0.902 1.978,-2.475 4.311,-4.537 7.468,-5.527 0.215,-0.497 -0.244,-1.387 -0.016,-1.871 0.069,-0.146 0.643,-0.826 1.158,-1.602 -0.335,-0.545 -0.794,-0.994 -1.313,-1.387 m -1.143,-11.96 c -1.529,-2.099 -2.624,2.283 0,0 m -1.298,-4.555 c -0.763,0.097 -0.336,0.768 -0.655,1.301 -1.292,2.156 1.329,-0.533 1.304,-0.653 0.063,0.336 -1.108,-0.592 -0.649,-0.648 m -9.102,10.399 c 0.64,1.994 1.735,-0.744 2.603,-0.655 -0.64,-1.988 -1.735,0.753 -2.603,0.655 m -2.595,2.599 c 0.636,1.998 1.728,-0.744 2.595,-0.649 -0.633,-1.995 -1.735,0.747 -2.595,0.649 m -1.298,13.717 c -0.057,0.963 0.867,0.446 1.466,-0.105 -0.428,0.089 -0.96,0.089 -1.466,0.105 m -2.606,4.483 c 1.665,-0.061 0.928,-2.533 2.599,-2.6 -0.924,-1.709 -2.469,1.374 -2.599,2.6 m -1.947,-12.344 c 1.143,-0.589 1.07,-2.399 2.596,-2.605 -0.873,-1.668 -4.182,1.659 -2.596,2.605 m 7.794,4.546 h -1.298 v 1.302 h 1.298 z m 0.602,149.457 c 0.069,-0.997 0.171,-2.114 0.05,-3.203 -0.028,0.006 -0.044,0 -0.069,0.003 -1.267,0.491 -2.099,1.38 -2.444,2.72 0.712,0.259 1.548,0.408 2.463,0.48 M 157.615,300.464 c -0.858,0.386 -0.871,-0.152 -1.302,0.648 -1.215,2.284 -3.779,3.495 -4.545,6.496 2.165,1.251 2.589,-1.506 3.248,-1.95 0.506,-0.332 0.588,0.738 1.297,0 1.254,-1.278 0.646,-0.724 -0.646,-0.648 0.209,-0.013 0.545,-1.282 0.646,-1.298 0.365,-0.061 0.922,0.506 0.653,0.648 1.95,-1.056 2.947,-3.169 3.254,-5.198 -0.279,-1.833 -1.95,1.004 -2.605,1.302 m -6.167,11.605 c -1.08,1.77 -1.884,3.568 -2.928,5.293 -0.896,1.479 -3.04,2.476 -2.606,4.553 3.34,-1.422 3.574,-5.582 5.201,-8.456 0.184,-0.323 0.412,-0.608 0.627,-0.912 -0.108,-0.155 -0.2,-0.317 -0.294,-0.478 m -4.334,95.469 c 0.044,0.105 0.063,0.234 0.095,0.342 1.361,0.398 2.937,1.022 3.254,-0.814 -3.102,0.307 -3.685,-0.278 -1.943,-1.953 -1.273,0.228 -2.198,-0.168 -3.062,-0.751 0.532,1.371 1.342,2.375 1.656,3.176 m -2.071,-13.385 c 0.045,-0.234 0.086,-0.456 0.127,-0.683 -1.232,-0.523 -2.409,0.844 -0.127,0.683 m -2.697,-4.02 c 1.248,0.336 -0.263,0.545 -1.197,0.519 0.267,0.076 0.602,0.085 0.868,0.161 h 1.953 c 0.06,-0.833 -0.753,-0.785 -1.624,-0.68 m -0.329,-72.771 h -1.298 v 2.599 c 1.165,0.089 1.367,-0.798 2.596,-0.648 -0.557,-0.526 -0.38,-1.787 -1.298,-1.951 m 5.543,92.297 c 0.58,-0.174 1.13,-0.367 1.605,-0.642 -0.69,0.085 -1.26,0.044 -1.697,-0.13 0.045,0.247 0.067,0.509 0.092,0.772 m -1.418,-12.28 c -0.025,0.162 -0.044,0.354 -0.073,0.51 0.368,0.045 0.791,0.028 1.146,0.079 h 1.95 c -0.063,-1.143 -1.753,-0.655 -3.023,-0.589 m 6.275,-2.013 c -0.941,-1.011 -2.536,-1.368 -4.55,-1.304 0.944,1.009 2.539,1.367 4.55,1.304 m 0.984,-85.012 c 0.988,-1.232 1.906,-2.483 2.266,-4.043 -0.987,0.899 -1.791,1.998 -2.538,3.112 0.152,0.275 0.24,0.585 0.272,0.931 m -16.031,35.18 c 0.161,0.123 0.326,0.247 0.487,0.364 0.101,-0.168 0.193,-0.348 0.26,-0.588 -0.272,0.091 -0.494,0.145 -0.747,0.224 m -1.855,-18.422 c -0.342,0.308 -0.165,1.017 -0.31,1.494 0.721,-0.538 2.215,-0.752 0.31,-1.494 m 282.116,2.597 c 1.605,1.051 -2.114,-2.23 -3.25,-2.597 -1.435,-1.234 1.719,2.621 3.25,2.597 m -23.385,-118.87 c -0.209,0.079 -0.428,1.054 -0.668,1.206 -2.2,1.371 -6.252,0.373 -8.68,1.206 -3.324,1.149 -12.172,10.038 -12.011,11.488 -0.012,-0.11 1.232,1.048 1.333,1.209 0.843,1.333 1.093,2.533 3.34,2.413 0.333,-1.931 2.551,-3.239 4.004,-5.439 1.074,-1.624 1.127,-2.655 2,-3.624 1.496,-1.652 6.041,-5.506 8.01,-6.047 1.576,-0.431 4.864,-1.558 6.009,0.604 -2.267,-1.158 -3.19,0.143 -4.673,0.609 -3.584,1.123 -3.978,0.807 -5.34,3.016 -1.91,3.119 -4.331,8 -5.338,10.881 -1.336,1.003 -3.105,1.63 -3.336,3.631 1.276,1.459 0.417,4.857 0.665,7.256 -0.811,0.874 -2.666,0.811 -2.669,2.415 2.022,1.267 1.292,3.54 2.004,5.442 1.063,2.853 2.377,5.477 3.336,8.465 0.684,2.124 1.163,4.572 2.004,6.645 0.317,0.789 1.941,2.245 1.998,2.419 0.776,2.295 0.386,4.923 1.336,7.253 2.13,0.36 2.064,-1.134 3.336,0 0.301,2.656 -1.313,2.646 -2,3.023 1.561,2.147 1.393,4.659 2,7.256 0.199,0.829 1.048,1.469 1.336,2.415 0.766,2.514 1.352,5.977 2.004,7.256 0.988,1.94 1.656,3.485 2.226,5.163 1.728,1.276 3.352,2.792 4.907,4.762 -0.147,-0.187 -0.887,0.224 -0.652,0.648 0.127,0.213 1.107,0.441 1.3,0.65 1.099,1.187 0.897,1.918 1.953,2.598 1.407,0.915 1.698,2.429 2.596,3.248 0.428,0.4 1.533,0.326 1.951,0.653 1.095,0.845 0.836,2.827 0.653,2.602 0.674,0.819 2.148,1.199 2.597,1.95 0.517,0.858 0.03,2.147 0.653,3.251 0.529,0.937 2.26,1.406 2.599,2.599 0.735,2.59 0.181,2.052 1.305,3.255 0.452,0.487 0.195,1.408 0.643,1.946 0.179,0.213 1.129,-0.215 1.3,0 0.51,0.618 0.754,1.817 1.305,2.6 0.636,0.925 1.383,1.576 1.949,2.598 -2.744,-0.11 0.014,1.001 0,1.948 -2.013,0.344 -1.446,-1.523 -2.601,-1.295 -0.162,0.032 0.018,1.007 -0.653,0.649 -1.408,-0.751 -3.925,-4.426 -5.195,-3.248 1.156,-0.244 -0.092,1.206 0,1.295 1.751,1.747 1.861,-0.048 3.252,1.304 0.193,0.196 -0.127,1.032 0,1.295 0.102,0.234 1.145,0.374 1.297,0.652 0.447,0.826 0.092,1.893 0.646,2.602 1.545,1.957 4.654,1.709 3.901,3.9 -1.96,-1.734 -5.854,-4.954 -9.096,-3.251 2.562,1.117 5.838,1.529 7.797,3.251 -1.842,0.538 -1.687,-0.915 -3.248,-0.652 0.203,1.529 2.014,1.457 2.597,2.599 -1.415,0.485 -2.505,-1.573 -3.894,-1.947 0.072,0.022 -0.861,1.381 -1.305,1.298 -0.082,-0.016 -0.943,-1.146 -1.3,-1.298 -1.143,-0.493 -3.288,-0.377 -4.549,-0.652 -0.102,-0.022 -0.216,-0.073 -0.321,-0.108 0.459,1.811 0.947,3.597 1.491,5.331 0.691,0.428 1.421,0.818 2.08,1.277 -0.491,0.237 -1.003,0.344 -1.513,0.398 0.747,2.128 1.604,4.156 2.69,5.974 0.036,0.371 0.102,0.713 0.665,0.601 -0.797,3.409 0.454,7.082 1.619,10.552 4.428,1.877 8.278,3.279 8.24,8.48 -0.041,5.196 -4.119,7.827 -9.75,7.149 -0.425,-0.054 -1.27,-1.323 -2.604,-1.95 -1.214,-0.57 -2.908,-0.829 -3.896,-1.301 -2,-0.953 -4.33,-2.147 -6.731,-3.372 0.342,2.431 0.356,4.989 1.106,7.038 0.756,2.063 3.868,4.296 1.336,6.651 0.174,-5.268 -4.79,-8.696 -3.1,-14.021 -4.904,-2.501 -10.045,-5.071 -13.41,-6.047 -0.506,2.447 0.791,3.112 0.647,5.198 -1.236,0.146 -1.438,-0.727 -2.596,-0.648 -0.963,1.854 0.18,1.668 0,2.605 -0.055,0.228 -0.627,-0.042 -0.656,0.649 -0.032,0.797 0.775,2.52 0.656,3.248 -0.207,1.184 -1.223,2.095 -1.305,3.248 -0.082,1.146 0.649,2.098 0.649,3.255 0,6.843 -2.137,12.232 -1.95,16.863 2.023,-0.877 4.928,0.152 4.416,2.679 -2.83,0.303 -4.072,-0.877 -4.84,-2.489 -2.587,0.886 -2.455,3.356 -2.828,6.341 -0.161,1.333 -0.322,2.573 -0.652,3.903 0.089,-0.329 -0.535,-0.756 -0.643,0 -0.126,0.814 0.739,1.583 0.643,1.951 -0.019,0.113 -1.123,0.952 -1.297,1.298 -1.039,2.083 -2.023,4.298 -2.597,5.85 -1.101,2.982 0.51,2.487 0.646,4.555 -2.456,-0.944 -1.247,1.786 -3.248,1.302 -0.576,-2.093 2.141,-0.897 1.947,-2.606 -1.884,-1.298 1.39,-6.345 0,-7.148 -2.96,-0.982 -2.054,5.257 -3.248,3.897 -0.846,-1.615 1.45,-3.153 0,-3.252 -2.799,1.226 0.326,4.341 -1.95,5.854 0.336,1.792 4.353,3.976 1.302,5.198 -0.108,-0.966 0.234,-2.397 -0.65,-2.596 -0.408,3.112 -0.874,0.921 -2.598,0.653 -0.137,1.864 0.164,3.294 1.297,3.893 0.966,-0.145 0.703,-0.658 1.301,0 -0.772,-0.854 0.326,1.39 0.65,1.956 0.531,0.95 1.031,1.929 1.301,2.597 h -2.603 c -0.351,-2.901 -1.535,-4.968 -3.251,-6.503 -0.538,1.7 1.963,3.571 0,4.556 v -1.957 c -1.69,2.428 -2.244,-0.618 -3.9,0 -0.52,0.2 -0.532,1.931 -1.298,1.957 -0.241,0.002 -0.859,-1.957 -1.953,-1.305 0.212,1.529 1.028,2.437 0.655,4.553 -3.647,-0.387 -4.508,4.726 -7.154,3.248 -0.153,0.196 -0.254,0.377 -0.346,0.553 0.861,1.01 1.351,2.359 1.437,4.084 h -1.611 c -0.351,-1.272 -1.361,-1.934 -2.166,-2.783 -0.468,2.834 -2.849,2.004 -2.513,0.096 -0.329,0.139 -0.645,0.309 -0.953,0.49 0.661,3.049 1.068,5.983 1.868,8.668 0.465,1.564 1.346,2.991 1.612,4.482 0.275,1.517 -0.14,2.948 0,4.483 0.373,3.97 2.323,8.725 2.69,12.451 0.171,1.738 -0.265,3.384 0,4.98 0.52,3.096 2.501,5.597 2.15,8.468 -0.118,0.383 -0.447,0.576 -1.077,0.497 -1.744,-4.239 -1.408,-9.158 -2.149,-13.945 -0.792,-5.138 -2.058,-10.893 -3.226,-15.435 -0.789,-3.069 -1.402,-6.183 -2.15,-9.469 -0.335,-1.466 -0.753,-2.878 -1.158,-4.316 -0.873,0.497 -1.479,0.615 -1.507,-0.706 -1.905,2.822 -0.946,-0.053 -2.599,-0.648 v 1.95 c -2.279,0.079 -5.841,-0.668 -6.506,-1.302 -1.05,-1.003 -2.108,-1.468 -3.248,-1.95 -1.433,-0.607 -2.953,-0.87 -4.375,-1.161 0.2,0.64 0.286,1.311 0.571,1.662 1.291,1.554 3.836,2.14 4.843,3.982 -0.14,1.868 -0.845,3.207 -2.153,3.986 -1.127,-1.969 -3.4,-3.141 -2.153,-5.977 -0.661,-0.925 -2.108,-2.622 -2.336,-3.923 -0.545,-0.139 -1.07,-0.3 -1.545,-0.515 -1,-0.459 -1.652,-1.628 -2.6,-1.95 -0.97,-0.329 -2.25,0.24 -3.25,0 -0.326,-0.086 -1.396,-1.112 -1.951,-1.301 -2.74,-0.941 -5.431,0.103 -7.147,0 -3.818,-0.222 -4.825,-3.04 -6.503,-5.198 -0.82,-1.058 -1.532,-2.315 -3.251,-3.248 -2.188,-1.194 -5.22,-0.406 -7.152,-1.955 0.248,0.719 -1.601,1.374 -1.297,1.955 0.05,0.087 1.737,0.138 1.297,0.651 -0.645,0.741 -2.266,0.13 -3.899,1.292 -0.184,1.272 -0.944,1.985 -1.77,2.488 v 0.747 c -0.029,0.304 -0.08,0.589 -0.535,0.497 0.051,-0.418 -0.152,-0.601 -0.424,-0.718 -0.178,0.079 -0.361,0.165 -0.519,0.237 -0.235,0.104 -0.371,1.159 -0.646,1.305 -0.52,0.262 -1.435,-0.25 -1.957,0 -0.247,0.12 -0.323,1.187 -0.649,1.297 -3.143,1.061 -5.457,-0.285 -9.038,-0.003 v 7.474 c 0.345,3.53 -0.465,6.5 0,9.672 0.241,1.637 1.263,3.232 1.336,4.834 0.228,4.828 -1.51,9.753 -0.668,15.721 0.028,0.642 -0.314,1.532 -0.668,0.605 0.655,-9.343 -2.783,-15.199 -0.668,-24.782 v -13.444 c -2.884,0.373 -3.786,1.459 -5.242,2.522 -0.687,-0.604 -0.213,-2.367 -1.925,-1.953 0.038,0.336 -0.048,0.655 -0.263,0.887 -0.259,0.974 -0.089,0.693 0.88,1.715 -1.963,0.722 -4.426,-0.221 -6.695,-0.747 0.411,0.982 0.82,1.969 1.332,2.853 0.032,0.304 0.083,0.585 0.539,0.493 -0.855,3.739 1.209,7.855 2.152,11.457 -1.633,0.558 -0.911,-1.459 -1.076,-1.991 -0.247,-0.798 -0.845,-1.685 -1.076,-2.491 -1.039,-3.6 -0.928,-6.642 -3.229,-7.969 0.721,-0.329 1.003,-1.066 1.076,-1.994 -1.691,0.557 -1.418,0.234 -2.684,-0.497 -0.007,-0.029 -0.007,-0.064 -0.007,-0.095 -0.529,0.089 -1.013,0.285 -1.45,0.62 0.165,0.833 0.431,1.659 0.915,2.467 1.244,-0.162 2.061,0.079 2.688,0.493 0.082,1.235 0.104,2.419 -1.077,2.492 -1.547,-1.159 -2.361,-3.005 -2.912,-5.093 -0.314,0.338 -0.602,0.75 -0.836,1.303 -3.514,0.276 1.928,-1.946 -0.652,-2.598 -1.976,0.848 -3.748,1.886 -5.847,2.598 -0.485,-2.219 2.387,-1.073 2.596,-2.598 0.446,-1.147 0.712,-2.017 0,-2.606 -1.238,0.699 -2.004,5.018 -3.768,3.35 -0.028,0.718 -0.142,1.43 0.13,2.158 0.298,0.81 1.267,1.194 1.612,1.988 0.744,1.726 0.494,3.783 1.076,5.484 0.332,0.959 0.959,1.006 1.077,1.991 0.167,1.428 0.332,3.454 -0.539,4.979 0.801,-1.624 -2.776,-5.714 -1.076,-6.97 0.342,-0.257 -0.538,-0.624 -0.538,-0.5 -0.022,-1.036 0.234,-2.204 0,-2.986 -0.216,-0.721 -1.27,-0.889 -1.612,-1.498 -0.791,-1.411 -0.354,-3.08 -1.617,-3.982 -0.846,0.042 -0.418,1.269 -1.612,0.998 -0.646,-1.024 -1.842,-1.539 -1.715,-3.277 -0.159,0.079 -0.295,0.165 -0.52,0.221 0,-2.165 1.089,-1.858 1.2,-1.168 0.956,-0.221 1.431,0.646 2.112,-0.26 -0.063,-0.408 -0.253,-0.905 -0.472,-1.427 -0.282,-0.114 -0.535,-0.199 -0.889,-0.393 0.221,-0.139 0.414,-0.183 0.617,-0.259 -0.288,-0.687 -0.561,-1.378 -0.608,-1.944 -0.38,0 -0.814,0.054 -1.311,0.247 -1.282,-1.899 -0.224,-2.102 -1.95,-3.242 -2.251,-0.522 -2.744,0.716 -3.897,1.292 0.156,-2.912 -4.077,1.137 -4.555,-1.943 -1.099,0.832 -2.422,1.158 -3.91,1.244 0.19,0.237 0.399,0.449 0.307,0.943 h -1.076 c -0.019,-0.44 -0.333,-0.611 -0.478,-0.935 -2.337,-0.056 -4.999,-0.505 -7.845,-0.601 0.045,1.526 -1.279,1.46 -1.95,2.597 -0.361,0.623 -0.168,2.367 -0.646,3.251 -0.285,0.509 -1.066,0.522 -1.298,1.297 -0.56,1.846 -0.076,4.135 -0.652,5.847 -0.443,1.317 -2.13,2.524 -2.599,3.9 -0.57,1.678 0.263,2.078 0,2.596 -0.282,0.568 -1.846,0.514 -1.95,1.308 1.371,3.112 -2.89,5.609 -5.854,6.506 1.124,1.124 -0.028,1.538 -0.645,1.947 -1.352,0.895 -1.919,0.674 -3.248,1.298 -1.219,0.569 -1.767,2.513 -2.606,2.602 -2.931,0.037 -7.29,-0.801 -9.095,-0.653 -0.158,0.013 -0.32,0.061 -0.481,0.108 0,0.114 -0.003,0.228 0.022,0.332 0.681,2.824 3.277,5.781 4.838,7.465 0.648,0.703 2.051,1.561 2.687,2.495 0.298,0.431 0.114,1.69 0.542,2.492 0.243,0.462 1.434,1.11 1.611,1.494 0.259,0.563 -0.241,1.418 0,1.988 0.76,1.788 2.529,3.149 1.611,4.982 -5.151,2.188 -5.61,-4.026 -6.451,-7.467 -2.479,0.139 -2.897,-1.637 -3.765,-2.989 0.197,-1.146 2.356,-0.481 2.15,-1.994 -0.231,-3.533 -4.046,-5.404 -4.793,-8.124 -1.117,0.567 -2.238,1.042 -3.169,-0.129 2.001,-1.02 -2.096,-0.478 -2.605,-0.653 -0.238,-0.085 -0.858,-1.079 -1.301,-1.301 -1.517,-0.753 -2.615,-1.073 -3.302,-1.969 -0.795,-0.294 -1.425,-0.889 -1.498,-1.766 -0.671,1.042 -1.564,1.868 -2.691,2.491 -0.785,-1.434 -2.76,-1.763 -3.222,-3.485 -0.782,-0.276 -2.78,0.576 -2.691,-0.5 0.608,-0.105 0.836,-0.551 1.076,-0.997 -2.361,0.357 -2.152,-1.665 -2.152,-3.49 0.927,-0.196 1.38,0.739 1.614,0 -0.994,-0.474 -0.994,-1.076 -0.734,-1.803 -0.615,-0.992 -0.874,-3.319 -1.349,-4.081 -0.199,-0.32 -1.539,0.124 -1.304,-0.653 0.092,-0.303 2.362,0.273 1.953,-0.648 -1.858,-1.611 -0.674,-6.256 -3.251,-7.149 1.437,-0.086 0.278,-2.753 0.652,-3.903 -2.286,-2.694 -5.834,-4.128 -7.803,-7.148 1.285,-0.959 -0.282,0.149 -0.649,0 -1.314,-0.538 -1.976,-3.077 -3.248,-3.251 7.952,2.855 4.428,-2.124 -0.653,-3.248 0.706,-0.156 1.564,-1.068 0.653,-1.301 -0.342,-0.026 -0.685,-0.079 -1.029,-0.114 -0.149,1.611 -0.352,3.061 -0.377,3.9 -0.022,1.003 0.706,1.693 0.544,2.488 -0.228,1.082 -0.842,2.757 -1.076,2.986 -3.451,3.333 -1.748,8.791 -1.615,12.95 0.045,1.327 -0.563,2.663 -0.538,3.982 0.032,1.7 1.064,3.245 1.077,4.984 0.013,1.848 -0.956,4.08 -1.077,5.973 -0.038,0.615 0.542,0.709 0.538,1.497 -0.006,0.716 -0.699,0.89 -0.538,1.989 0.175,1.18 0.997,1.972 1.077,2.988 0.044,0.665 -0.631,0.944 -0.539,1.992 0.539,6.571 -1.025,14.324 0,21.416 0.213,1.475 1.02,2.608 1.077,3.985 0.038,1.004 -0.418,1.903 -0.538,2.985 -0.323,2.821 0.455,5.658 0.538,8.469 0.05,1.899 -0.937,3.935 0,5.477 -1.409,0.132 -1.317,-1.501 -1.615,-2.489 -0.367,-1.215 0.095,-3.02 -1.076,-3.488 0.437,-1.533 0.946,-2.09 1.076,-3.486 0.219,-2.355 -1.029,-3.359 -1.076,-4.483 -0.038,-0.867 0.462,-2.117 0.538,-2.985 0.254,-3.01 0.393,-5.97 0.538,-7.471 0.595,-6.145 -0.889,-11.33 -1.076,-14.939 -0.26,-5.027 0.386,-9.998 0,-14.442 -0.057,-0.649 -0.494,-0.691 -0.538,-1.491 -0.285,-5.737 0.013,-12.245 -1.07,-16.44 -0.044,-0.152 -0.997,-0.762 -1.083,-0.994 -0.386,-1.092 -0.038,-2.884 -0.538,-3.985 -0.184,-0.421 -1.368,-0.903 -1.615,-1.497 -0.177,-0.438 0.348,-2.299 0,-2.98 -0.063,-0.142 -0.949,0.108 -1.07,0 -0.595,-0.554 0.491,-2.988 0.532,-3.488 0.158,-1.723 -0.019,-3.607 -0.082,-5.316 -2.751,-0.662 -5.334,-1.228 -7.573,-1.221 2.074,-0.7 4.803,-0.744 7.611,-0.71 0.016,-0.237 0.01,-0.503 0.044,-0.722 0.444,-2.605 1.726,-4.146 2.691,-5.482 0.228,-0.311 0.377,-0.767 0.538,-0.997 0.209,-0.292 0.425,-0.672 0.636,-1.014 -0.158,-0.057 -0.3,-0.13 -0.471,-0.174 -2.102,-0.557 -6.547,-0.69 -7.145,-0.649 -3.096,0.183 -6.677,2.558 -8.449,0 6.084,-0.82 13.758,0.007 16.246,-1.307 -1.298,-1.735 -6.812,0.747 -7.151,-1.944 2.251,-1.041 3.46,0.896 5.201,-0.655 -4.052,-0.833 -7.788,-1.058 -9.751,-1.298 -1.269,-0.159 -3.798,0.734 -3.248,-0.649 4.35,-1.146 6.744,0.781 8.447,-0.649 -0.447,0.373 -2.226,-0.479 -1.947,-0.655 1.611,-1.013 3.197,1.019 3.9,-1.301 0.288,1.076 4.91,1.076 5.201,0 -2.545,0.721 -2.406,-1.023 -3.248,-1.299 -0.05,-0.016 -0.108,-0.028 -0.158,-0.041 -0.62,0.384 -1.292,0.713 -2.362,0.678 -0.161,-0.513 -0.538,-0.827 -0.937,-1.127 -2.798,-0.159 -5.356,-0.079 -3.045,-1.459 h -7.148 c 0.126,-1.333 -0.684,-1.726 -1.773,-1.84 -0.437,0.573 -1.032,1.001 -1.615,1.44 -0.608,-0.199 -0.978,-0.829 -1.051,-1.497 -0.893,-0.032 -1.687,-0.162 -2.064,-0.706 2.558,-0.478 4.35,-1.713 6.503,-2.596 -0.507,-0.145 -1.286,-0.015 -1.305,-0.655 5.062,-0.282 11.08,1.915 15.601,0 -1.054,-3.052 -1.501,-6.724 -4.552,-7.794 1.485,-0.893 2.447,1.681 2.602,0 0.481,-2.258 -3.435,-3.444 -1.301,-5.205 0.854,0.219 2.137,0.5 3.903,1.308 v -2.606 c -1.228,-0.13 -6.427,0.438 -4.552,-0.648 2.02,0.062 3.609,-0.288 4.552,-1.302 -1.355,-0.38 -2.102,-1.364 -3.251,-1.95 -0.858,-1.627 2.574,-2.029 0.649,-2.599 -1.583,0.849 -3.305,1.558 -5.198,2.599 -1.488,0.817 -3.175,3.122 -4.553,1.95 0.766,-0.319 1.476,-0.689 1.95,-1.301 -2.671,-1.56 -4.254,1.247 -5.85,0 2.058,0.941 2.242,-2.358 2.602,-2.599 0.412,-0.269 1.47,0.146 1.951,0 0.243,-0.073 0.962,-1.187 1.297,-1.301 1.684,-0.544 4.559,0.231 5.199,-1.946 -3.163,1.75 -0.266,-0.83 -1.295,-1.305 -0.852,0.934 -4.803,2.083 -5.201,1.305 0.753,-0.109 0.706,-1.03 0.646,-1.954 2.773,-0.026 4.593,-0.472 5.85,-1.301 1.026,-0.668 2.393,-2.346 2.602,-3.245 -1.526,0.206 -2.438,1.022 -4.549,0.649 -0.251,0.994 -0.782,0.092 0,-0.649 2.013,0.063 3.602,-0.297 4.549,-1.301 -5.167,-2.007 -8.526,3.074 -12.346,4.546 -0.729,-2.213 1.896,-2.371 3.248,-3.245 1.412,-0.918 3.805,-1.972 4.549,-2.602 0.218,-0.187 -0.691,-1.228 0,-1.947 0.218,-0.24 2.428,-0.896 1.298,0 -0.004,0.854 -1.137,0.589 -1.298,1.298 h 2.599 c -0.576,-2.654 0.06,-3.172 0.778,-3.695 -0.015,-0.012 -0.031,-0.022 -0.044,-0.035 -0.481,-0.446 -0.712,-0.674 -0.924,-0.847 -1.659,0.426 -2.97,0.667 -4.363,1.326 -1.81,0.857 -4.492,3.197 -5.197,2.601 0.62,-1.114 2.158,-1.31 2.602,-2.601 -1.159,-0.387 -2.704,1.902 -3.248,0 1.126,-1.343 3.058,0.383 4.545,0 0.073,-0.016 1.014,-1.137 1.298,-1.305 0.729,-0.418 1.732,-0.702 2.628,-1.061 -0.659,-0.642 -1.178,-1.779 -1.646,-2.098 1.101,0.142 2.083,0.706 3.001,1.371 0.589,-0.476 0.886,-1.121 0.57,-2.108 -1.843,-0.897 -3.258,1.674 -3.869,0.053 -0.082,0.06 -0.164,0.117 -0.234,0.187 -0.772,0.747 -1.874,-0.735 -3.229,0.497 0.247,-2.065 -2.514,-1.323 -3.764,-1.994 0.022,0.686 -0.257,1.094 -0.538,1.497 -4.809,0.522 -8.336,2.235 -13.445,2.488 -0.23,-0.953 -1.535,-0.899 -1.073,-2.488 3.226,0.098 5.128,-1.637 9.677,-1.497 0.538,-0.662 0.51,-1.849 1.615,-1.989 0.022,0.684 -0.257,1.089 -0.538,1.489 4.938,-0.371 8.044,1.048 12.365,0.5 0.073,0.712 -0.345,0.965 -0.741,1.237 1.555,0.092 1.561,-1.374 1.827,-2.58 -1.194,-0.184 -4.163,2.08 -2.606,0.649 0.184,-1.333 2.426,-0.611 2.606,-1.95 0.019,-0.548 0.003,-1.231 -0.01,-1.943 -0.747,0.141 -1.481,0.243 -2.146,0.103 -1.63,-0.338 -2.627,-1.785 -3.229,-2.487 -2.425,-2.824 -4.761,-5.993 -3.764,-9.963 4.714,0.782 7.278,3.552 9.139,6.974 0.472,-0.06 0.817,-0.044 1.096,0.012 -0.222,-0.607 -0.507,-1.18 -0.44,-1.794 0.003,-0.035 0.034,-0.06 0.047,-0.092 -0.158,0.086 -0.361,0.133 -0.693,0.092 -0.314,-0.042 -2.976,-2.726 -1.301,-3.249 0.006,0.653 1.136,0.818 1.301,0 -1.884,-1.24 -2.143,-3.311 -1.95,-5.853 0.107,-1.523 3.131,-3.606 0.649,-5.201 -0.551,2.704 -0.893,5.61 -1.95,7.803 -0.295,-1.279 -2.419,-4.02 -0.653,-5.201 0.159,0.997 1.071,0.092 1.298,-0.652 -1.449,-2.007 2.492,-4.189 -0.645,-5.847 1.902,-0.048 1.421,-2.479 3.897,-1.957 0.826,1.983 -2.22,3.315 -0.646,3.904 1.472,-2.836 1.254,1.636 3.248,1.95 -0.852,0.01 -0.826,1.802 0,1.95 1.751,0.611 0.75,-1.336 1.301,-1.95 0.662,-0.735 1.729,0.041 1.95,-1.301 0.01,-0.054 -1.177,-0.611 -0.652,-1.298 1.608,0.839 3.153,-1.456 3.248,0 -0.871,0.427 -1.206,1.39 -1.298,2.599 0.652,0 0.773,0.525 1.298,0.649 0.696,-0.817 0.918,-1.234 2.599,-1.95 -0.035,0.019 0.143,1.634 0.649,1.301 0.212,-0.139 -0.174,-1.12 0,-1.301 0.203,-0.193 1.14,0.222 1.304,0 0.19,-0.25 -0.221,-1.083 0,-1.298 0.589,-0.57 1.425,-0.655 1.95,-1.298 2.096,-2.584 0.608,-3.882 1.298,-6.503 0.982,-0.497 1.52,-1.091 2.603,-1.95 1.12,-0.883 1.221,-1.854 1.949,-2.598 0.457,-0.466 1.46,-0.204 1.948,-0.65 0.791,-0.718 0.094,-1.453 1.301,-1.946 -0.057,0.018 0.709,1.137 1.304,0.648 0.956,-3.504 4.647,-3.631 6.499,-6.505 0.985,-1.532 -0.427,-4.407 2.599,-4.552 0.26,1.121 -0.962,1.668 0,1.947 1.786,-0.02 1.672,-1.767 2.602,-2.6 0.874,-0.775 1.843,-0.905 2.6,-1.946 0.424,-0.576 0.151,-0.839 0.648,-1.292 -0.234,0.212 0.444,0.975 0.653,0.649 0.532,-0.883 1.842,-4.458 5.204,-3.907 -1.089,-1.295 0.051,-0.829 0,-2.598 2.564,0.494 2.615,-2.147 3.242,-2.596 -0.342,0.243 0.383,0.655 0.649,0.648 1.478,-0.079 2.194,-2.468 3.634,-3.124 -1.181,-0.121 -2.105,-2.064 -1.105,-2.9 1.552,-0.298 1.412,1.58 1.615,1.994 0.003,0.007 0.022,0.013 0.028,0.02 0.573,-1.472 1.766,-2.315 2.333,-3.789 1.273,-0.194 1.292,0.873 1.944,1.297 0.127,-2.4 1.76,-1.352 3.255,-1.953 0.107,-0.045 0.291,-0.254 0.493,-0.488 -0.145,-0.531 -0.31,-1.054 -0.525,-1.561 -0.361,-0.867 -1.146,-1.136 -1.609,-1.991 -0.427,-0.778 -0.905,-1.731 -1.082,-2.488 0.013,0.041 0.633,-0.085 0.538,-0.497 -0.361,-1.668 -1.304,-3.96 -1.611,-4.983 -5.227,-1.212 -5.214,-8.035 -1.074,-8.465 2.619,-0.276 4.749,2.311 4.838,4.98 0.063,1.928 -2.856,3.188 -1.609,5.477 6.927,-0.947 5.306,3.557 5.306,7.253 1.07,-0.706 2.033,-1.425 2.185,-1.79 -0.054,0.127 -1.697,-0.288 -1.298,-0.649 0.617,-0.557 2.016,-0.092 2.602,-0.642 1.156,-1.118 2.292,-1.678 2.596,-3.254 -1.532,0.199 -1.209,2.254 -3.248,1.947 1.909,-3.984 -1.519,-2.289 -2.602,-2.6 0.88,-0.56 2.33,-2.314 3.254,-3.896 0.279,-0.482 -0.222,-1.432 0,-1.95 0.791,-1.891 2.077,-0.459 1.947,-1.954 -0.01,-0.121 -1.298,0.649 -1.298,0.649 -0.314,-0.136 -0.054,-2.004 -0.649,-1.941 2.621,-0.899 2.298,1.159 3.248,1.941 4.116,1.288 5.933,-3.134 8.446,-1.298 -2.266,0.11 -2.849,1.918 -4.549,2.603 2.428,-0.058 1.852,-0.732 3.897,0 -1.842,-1.929 2.795,-1.03 2.602,-3.246 3.27,0.225 5.67,-0.405 7.804,-1.307 0.145,1.228 -0.735,1.431 -0.649,2.599 0.927,-0.251 1.095,-0.782 1.947,0 2.678,-2.396 6.183,-5.205 7.803,-7.797 1.064,0.057 2.824,-1.086 1.302,0 -0.01,0.858 -1.146,0.591 -1.302,1.301 3.122,0.301 2.916,-2.719 4.55,-3.907 -0.954,-0.006 -2.061,2.742 -1.951,0 2.004,-0.449 1.251,-0.449 3.248,0 0.276,-1.288 2.707,-3.728 3.251,-2.596 -2.025,-0.161 -1.069,2.216 -1.949,3.251 -0.254,0.292 -1.64,0.415 -1.951,0.643 -0.547,0.428 -0.778,1.482 -1.301,1.96 -1.174,1.063 -2.979,1.481 -3.248,3.248 1.684,-0.915 3.001,-2.197 4.549,-3.248 -0.057,2.72 -6.205,3.45 -2.599,5.853 -0.965,0.763 -2.902,0.557 -2.599,2.596 1.741,-0.452 1.254,1.343 1.947,1.95 -0.972,0.409 -1.909,0.767 -2.596,1.298 -0.218,0.165 0.19,1.096 0,1.301 -0.414,0.431 -2.117,-0.367 -1.953,0.649 0.032,0.893 -0.307,1.428 -0.652,1.951 0.817,-1.204 2.593,-1.226 3.254,-1.951 0.482,-0.532 0.086,-1.494 0.649,-1.95 0.567,-0.462 1.453,-0.158 1.95,-0.648 0.355,-0.355 0.355,-1.574 0.646,-1.95 1.827,-2.35 4.1,-2.825 5.853,-4.553 0.368,-0.367 0.343,-1.561 0.653,-1.947 1.101,-1.38 3.381,-2.726 4.549,-3.251 0.665,-0.294 1.833,-3.578 2.605,-1.308 -0.725,0.45 -3.381,2.166 -1.956,2.609 0.731,0.06 1.013,-0.947 1.301,0 -1.225,1.161 -3.01,1.753 -3.897,3.248 2.532,-0.042 0.279,0.861 0,1.301 -0.405,0.62 -0.184,0.826 -0.649,1.298 0.269,-0.272 -0.909,-0.722 -1.301,0 -0.459,0.836 1.102,0.684 0,1.298 0.171,-0.092 -0.716,-0.87 -1.305,-0.649 -0.145,0.057 0.121,1.162 0,1.304 -1.449,1.675 -0.474,-2.532 -1.297,-1.304 -0.757,0.965 -0.757,1.64 0,2.605 -1.627,-0.085 -2.036,-1.244 -2.603,0.649 1.58,0.65 -1.272,2.874 1.951,2.599 1.291,-1.5 -0.165,-0.722 -0.653,-1.949 0.855,-0.833 2.4,-0.833 3.255,0 1.418,-2.48 3.814,-3.987 7.154,-4.553 1.118,-1.491 3.691,-4.938 5.195,-3.897 -2.906,2.479 -6.771,6.079 -9.098,9.098 -0.472,0.609 -1.975,1.732 -1.298,2.596 1.656,-1.959 2.887,-3.776 5.201,-5.194 -0.155,0.085 0.215,0.984 0.646,0.651 0.263,-0.212 2.14,-3.526 2.596,-1.301 -0.716,0.437 -3.368,2.156 -1.944,2.6 1.178,-0.815 3.78,-3.536 4.546,-2.6 -1.754,1.485 -3.748,2.824 -4.546,4.549 -1.722,3.698 2.124,1.555 0,3.252 -0.36,0.288 0.599,0.89 0.646,0.645 -0.402,1.998 -1.434,1.966 -1.298,3.248 0.025,0.248 2.355,-0.234 1.944,0.65 -0.203,0.465 -2.97,-0.494 -2.59,0.648 1.286,1.583 2.773,-1.091 3.242,1.308 -1.158,0.313 0.285,0.69 0.646,1.295 -3.229,0.168 -2.761,0.272 -5.192,0.652 -0.443,0.722 -2.162,3.371 -2.599,1.953 0.652,-0.006 0.817,-1.136 0,-1.297 -1.488,2.208 -5.173,5.637 -3.904,8.445 -0.107,-1.624 1.001,-2.035 1.951,-2.602 1.082,2.58 -1.089,3.042 -1.951,5.204 0.073,-0.186 0.745,0.206 0.653,0.65 -0.041,0.179 -1.14,0.829 -1.298,1.301 -0.304,0.845 -0.241,2.33 -0.652,3.254 0.855,0.003 0.592,1.14 1.297,1.294 1.482,0.89 2.445,-1.674 2.606,0 -0.301,0.783 -0.529,2.394 -0.336,3.97 0.114,0 0.222,0.007 0.358,-0.016 -0.057,0.219 -0.158,0.393 -0.247,0.583 0.269,1.403 0.893,2.704 2.172,3.261 0.003,-0.652 -0.529,-0.769 -0.649,-1.298 1.744,-0.605 0.75,1.336 1.298,1.95 0.481,0.539 2.149,0.07 1.95,1.304 -1.624,-0.082 -2.035,-1.247 -2.599,0.646 0.899,2.292 3.514,2.184 5.198,1.302 -0.988,-0.656 0.183,-1.457 0,-1.948 -0.057,-0.161 -1.172,0.14 -1.298,0 -1.099,-1.231 0.272,-2.618 0,-4.555 -0.133,-0.918 -2.096,-1.324 -0.646,-2.596 -2.494,0.114 -0.24,-0.532 -0.655,-1.953 -1.333,0.747 -3.099,-1.017 -1.301,-1.301 0.038,0.398 0.095,0.772 0.652,0.651 2.222,-3.022 7.145,0.346 7.8,-4.548 -2.76,-0.162 -3.507,1.7 -6.496,1.3 -0.962,-2.471 2.897,-0.13 1.944,-2.601 0.465,-1.764 -3.065,0.465 -2.599,-1.302 3.027,-1.741 6.278,-3.248 7.797,-6.492 h 2.602 c 1.07,-1.08 1.95,-2.947 3.248,-3.903 0.428,-0.318 1.501,0.278 1.954,0 0.534,-0.343 0.75,-1.593 1.298,-1.955 1.155,-0.75 3.568,-1.066 5.201,-1.956 0.744,-0.398 1.209,-1.522 1.95,-1.947 0.956,-0.541 1.855,-0.851 2.757,-1.104 0.016,-0.184 0.029,-0.377 0.045,-0.554 0.265,-3.036 1.554,-6.012 2,-10.274 0.222,-2.104 0.807,-6.14 0.672,-6.65 -0.631,-2.337 -3.689,-2.989 -4.676,-4.233 -0.516,-0.652 0.433,-2.317 -1.336,-1.814 -2.001,5.043 0.123,13.813 -6.67,14.512 -3.91,-1.526 -1.913,-5.81 -3.343,-8.465 -0.653,-1.216 -1.799,-1.628 -2.669,-2.416 -1.406,-1.275 -1.172,-1.206 -2.672,-1.817 -1.136,-0.462 -1.947,-2.536 -2.668,-3.02 5.017,0.64 8.015,8.085 12.681,3.628 1.292,0.64 0.934,2.782 2.004,3.625 1.479,-0.226 1.713,-2.061 2.004,-3.02 0.345,-1.133 0.826,-3.584 0.668,-4.233 -0.506,-2.067 -8.68,-8.155 -10.016,-8.465 -2.695,-0.621 -5.642,1.092 -8.007,0.602 -2.022,-0.409 -3.26,-2.166 -4.007,-3.018 -3.008,-3.428 -5.908,-7.278 -4.673,-12.093 5.853,0.947 9.035,4.309 11.346,8.465 2.552,-0.316 2.39,0.956 3.34,1.811 1.333,1.213 2.326,2.156 3.337,3.026 0.74,0.627 2.156,0.751 2.675,1.207 1.051,0.934 1.506,2.533 2.665,3.628 1.039,0.975 2.368,2.153 4.005,2.418 1.257,-4.697 1.117,-9.839 2.004,-14.512 1.152,-6.058 3.887,-11.712 6.008,-15.714 -0.402,-3.213 -5.166,-5.185 -2.672,-9.064 4.964,0.668 0.437,6.215 3.34,8.459 3.881,-3.336 6.522,-7.794 12.017,-9.671 0.934,-2.783 2.928,-3.054 5.338,-4.232 1.12,-0.545 1.288,-1.935 3.337,-1.21 3.14,4.603 -1.837,2.799 -3.337,3.632 0.155,-0.089 -0.757,1.336 -0.668,1.206 -0.304,0.426 -0.291,0.864 -0.668,1.209 -4.527,-0.324 -4.935,0.728 -7.338,2.422 -0.586,0.405 -1.349,0.778 -2.004,1.206 -1.684,1.095 -2.083,2.327 -3.337,3.631 -1.959,2.019 -4.704,4.507 -4.676,7.25 5.303,1.244 10.169,2.88 16.687,3.026 2.463,-3.824 5.125,-7.949 8.012,-12.097 4.392,-6.293 8.298,-13.568 16.69,-15.109 1.541,-5.68 -4.629,-5.341 -5.34,-9.068 -1.061,-5.545 5.295,-6.973 6.543,-12.666 -0.006,0.843 1.006,0.764 1.465,1.181 0.232,0.206 -0.186,0.966 0,1.21 1.6,2.08 3.461,3.169 6.009,3.625 -0.275,-5.557 -2.893,-8.542 -3.333,-12.691 -1.703,-0.077 -2.596,-0.881 -2.676,-2.419 0.932,-0.773 0.412,-2.853 1.336,-3.628 -1.908,1.874 -4.269,-1.716 -2.668,-3.024 1.924,-0.364 1.75,1.915 2,2.419 0.096,0.19 1.172,0.393 1.336,0.605 0.206,0.26 -0.148,0.912 0,1.209 0.086,0.177 1.172,0.408 1.34,0.601 1.674,1.989 0.994,2.583 0.664,4.237 -0.696,3.468 0.881,4.156 2.001,6.046 0.792,1.33 1.178,2.482 2.007,3.625 2.105,2.912 5.879,5.27 6.677,7.857 1.409,4.606 -0.301,10.551 0.661,15.715 0.156,0.816 1.115,1.212 1.334,1.813 0.734,1.945 0.126,4.847 0.668,6.652 0.294,0.963 1.705,1.674 2.006,2.415 0.406,1.016 0.567,2.742 0.668,3.628 0.535,4.672 0.769,6.645 2.67,9.671 1.046,-4.365 4.115,-7.082 4.003,-11.482 -0.041,-1.678 -1.313,-4.087 -2,-6.046 -0.626,-1.789 -0.833,-3.318 -1.339,-4.838 -0.073,-0.224 -1.232,-0.885 -1.336,-1.209 -0.821,-2.542 -0.421,-5.119 -1.332,-7.253 -0.359,-0.854 -1.662,-1.117 -1.334,-2.419 -2.346,0.109 -2.197,-2.038 -4.008,-2.415 v -6.043 c 0.792,-0.902 2.523,-0.94 3.34,-1.814 -1.529,-3.83 -2.089,-7.787 -3.34,-10.884 -0.215,-0.525 -0.291,-1.263 -0.661,-1.81 -0.326,-0.472 -1.197,-0.745 -1.336,-1.209 0.042,0.138 0.719,-0.691 0.668,-1.21 -0.184,-1.703 -1.542,-3.827 -2.007,-5.442 -0.757,-2.608 -0.943,-5.382 -2.001,-7.86 -0.449,-1.052 -1.425,-1.378 -2.001,-2.413 -0.528,-0.946 -1.12,-2.105 -1.339,-3.023 0.017,0.054 0.782,-0.101 0.668,-0.605 -0.449,-2.023 -1.624,-4.802 -2.004,-6.046 -6.486,-1.473 -6.471,-9.751 -1.333,-10.276 3.252,-0.332 5.899,2.808 6.009,6.047 0.076,2.338 -3.546,3.865 -2.001,6.647 9.57,-1.281 5.993,5.636 6.677,10.273 0.202,1.425 1.504,2.168 1.995,3.631 0.585,1.703 0.094,3.663 0.668,5.439 0.493,1.516 2.076,2.678 2.674,4.232 0.431,1.115 0.324,2.454 0.666,3.625 1.905,6.512 3.934,11.761 6.007,17.532 1.372,3.815 2.79,6.974 4.008,10.276 0.326,0.892 0.956,1.586 1.333,2.416 0.324,0.706 -0.842,3.057 1.329,2.422 0.992,-3.882 2.014,-10.172 3.347,-13.303 0.472,-1.114 0.187,-3.191 1.997,-3.021 0.596,1.558 -1.015,2.86 -1.332,4.23 -0.31,1.352 0.338,2.843 0,4.229 -0.611,2.534 -3.002,4.905 -3.34,7.865 -0.177,1.57 -0.507,3.564 0.671,5.438 1.054,-0.054 0.519,-1.542 2.004,-1.209 1.62,1.149 1.2,4.147 3.337,4.837 5.654,-1.7 7.477,1.716 7.344,4.84 -0.078,1.77 -3.185,3.242 -4.008,6.044 -1.035,3.52 -0.212,5.224 0.668,7.85 2.849,-4.704 6.959,-8.714 8.681,-13.894 0.443,-1.345 0.042,-3.488 0.668,-4.84 0.084,-0.203 1.095,-0.877 1.333,-1.213 2.162,-3.016 3.13,-4.834 6.005,-6.043 0.709,-0.295 1.428,-1.022 2.004,-1.209 6.388,-2.042 10.78,2.785 11.349,7.857 0.477,4.242 -1.579,8.463 -2.672,9.674 -1.237,1.377 -1.254,1.235 -2.669,1.818 m 33.373,41.1 c -0.015,2.198 -1.956,2.653 -4.666,2.419 0.146,-1.143 -0.757,-1.333 -0.668,-2.419 1.117,-0.8 2.233,-1.601 4.67,-1.206 0.151,0.465 0.022,1.187 0.664,1.206 m -3.998,8.462 c 0.32,1.906 -2.051,1.371 -1.333,3.628 0.114,1.703 3.169,0.75 2.669,3.021 -0.785,0.095 -1.896,-0.105 -2.004,0.604 1.317,9.564 6.037,19.415 4.67,27.808 -0.773,-8.158 -3.03,-14.986 -4.002,-22.968 -1.051,-0.056 -2.317,0.079 -2.004,-1.209 -0.203,-1.19 0.899,-1.206 1.336,-1.814 -1.682,-1.098 0.297,-5.511 -2.672,-5.442 1.158,-3.393 -2.244,-7.237 0,-12.09 1.057,2.872 0.456,7.244 3.34,8.462 m -4.673,-9.063 c 0.501,-4.495 -2.649,-8.877 -0.668,-12.698 -0.456,4.455 2.466,9.035 0.668,12.698 m 2.669,-68.314 c -0.959,-0.879 -0.981,-2.336 1.336,-1.81 0.035,1.041 -0.515,1.548 -1.336,1.81 m 26.031,88.863 c -0.493,-1.339 2.46,-2.489 2.672,-1.206 -1.323,0.003 -0.844,1.645 -2.672,1.206 m -30.704,-35.061 c -0.589,-2.298 0.359,-3.026 0.668,-1.81 0.105,0.418 -0.233,3.516 -0.668,1.81 m 39.388,7.256 c -0.528,-2.327 3.194,-2.327 2.666,0 -1.823,-0.057 -1.343,1.007 -2.666,0 m -11.352,19.947 c 1.191,2.659 2.168,7.358 -0.667,9.067 -1.175,-1.959 -3.337,-3.024 -5.341,-4.233 -0.855,2.771 -1.194,3.666 -0.668,6.652 -0.788,0.294 -1.511,0.645 -2.001,1.206 -2.299,-0.336 -3.397,-1.76 -4.676,-3.021 -0.791,1.257 -4.09,-0.275 -3.336,-2.415 2.76,-0.813 3.158,0.966 4.004,1.209 1.734,0.491 3.612,-0.351 4.673,1.206 2.786,-6.002 -2.991,-16.027 2.672,-19.342 2.118,1.909 3.131,4.825 4.673,7.249 1.05,-0.256 0.569,-1.896 2.671,-1.206 0.557,0.703 0.88,1.618 0.664,3.024 -0.993,0.101 -2.459,-0.219 -2.668,0.604 m -14.685,-50.778 c -6.098,0.655 -5.572,-7.623 -1.336,-8.459 -1.35,2.929 3.216,4.895 1.336,8.459 m 8.009,62.868 c 1.522,-0.168 2.51,0.143 2.672,1.209 -0.992,0.953 -2.982,0.668 -2.672,-1.209 m -17.355,129.966 c 0.383,0.367 1.565,2.865 0,3.019 0.399,-1.072 -1.959,-2.509 0,-3.019 m -2.669,42.911 c 0.469,0.453 1.662,2.967 -0.668,2.425 0.115,-0.908 -0.237,-2.232 0.668,-2.425 m 0,-51.977 c 1.555,-0.545 0.384,4.115 0,1.81 -0.212,-7.059 -6.562,-8.566 -5.343,-16.924 7.148,1.076 3.821,10.533 5.343,15.114 m -6.676,30.222 c -1.352,-0.908 -0.789,-1.925 -1.336,-3.026 -0.114,-0.225 -1.215,-0.307 -1.336,-0.602 -0.725,-1.792 -0.212,-3.878 -0.664,-6.046 -0.565,-2.666 -2.761,-5.306 -1.333,-7.255 0.718,6.001 6.419,10.703 4.669,16.929 m 15.351,0.605 c 0.145,1.33 1.633,4.502 0.668,4.838 -0.298,-1.194 -2.477,-3.743 -0.668,-4.838 m -26.032,-3.027 c -0.26,-0.61 0.655,-1.053 0.665,-1.206 0.351,-4.517 1.69,-7.135 2.004,-10.275 0.142,-1.415 -0.675,-2.872 -0.665,-4.234 0.015,-3.694 1.889,-7.208 1.333,-10.876 0.212,-0.972 0.949,0.041 0.668,1.206 0.053,1.3 -0.074,2.478 0,3.628 0.123,2.023 1.31,4.267 1.336,6.042 0,-0.024 -1.311,0.514 -1.336,0.602 -0.178,0.57 0.686,0.754 0.668,1.21 -0.106,2.368 -0.545,2.69 -1.336,4.232 -1.447,2.828 -2.22,5.375 -2.004,8.465 0.136,1.976 2.507,4.265 2.672,6.649 0.161,2.348 0.347,4.882 -2.672,6.654 -0.693,-1.884 -1.799,-3.625 -2.001,-5.442 -0.402,-3.628 1.244,-5.284 0.668,-6.655 m 23.366,-61.05 c -0.041,-0.368 -0.101,-0.712 -0.668,-0.605 v -1.206 c 1.64,-0.943 1.959,2.051 0.668,1.811 m -2.004,21.156 c -0.107,1.114 1.573,4.955 0,3.628 0.722,-1.545 -2.032,-2.881 0,-3.628 m 2.004,-81.606 v 1.814 h -1.336 c -0.038,-0.773 -0.857,-0.836 -0.668,-1.814 z m 0.668,116.669 c -0.364,1.783 1.893,4.265 0.662,4.831 -0.295,-1.186 -2.473,-3.738 -0.662,-4.831 m -3.34,-19.345 c 0.653,1.032 2.444,3.713 0.668,4.233 0.178,-2.179 -1.234,-2.913 -1.336,-4.838 0.541,-0.895 0.199,-0.136 0.668,0.605 m 2.004,73.141 c -0.522,-1.342 -1.406,-2.359 -1.336,-4.233 2.065,-0.411 2.777,3.464 1.336,4.233 M 214.67,188.467 c -0.202,-0.818 -0.949,-1.153 -0.668,-2.416 3.106,-0.732 3.21,2.403 0.668,2.416 m -46.055,65.891 c -0.858,-0.795 -0.858,-2.229 0,-3.02 2.998,-0.311 2.194,3.162 0,3.02 m -6.676,-3.625 c -0.038,-0.37 -0.105,-0.718 -0.668,-0.604 -0.203,-1.596 0.924,-1.988 2.668,-1.815 0.19,1.581 -0.243,2.6 -2,2.419 m 46.726,-86.443 c 0.105,-0.713 -0.114,-1.716 0.668,-1.814 0.408,0.567 1.554,2.228 -0.668,1.814 m 1.336,20.552 c -0.155,-0.374 1.01,-1.298 1.339,-1.209 1.754,0.484 -0.434,3.396 -1.339,1.209 m -56.743,43.519 c 0.89,-0.782 2.482,-0.795 2.672,0.608 -0.886,0.788 -2.485,0.795 -2.672,-0.608 m 24.7,38.689 c 0.706,2.007 1.978,2.624 -0.668,3.631 -0.918,-0.78 -1.159,-3.616 0.668,-3.631 m 170.81,174.722 c 4.97,6.075 10.798,14.829 16.686,20.552 0.503,0.488 0.218,1.241 0.668,1.814 0.218,0.285 1.086,0.307 1.329,0.608 0.425,0.503 0.32,1.361 0.665,1.811 1.311,1.662 2.767,3.175 4.015,4.834 0.627,0.838 1.254,1.491 2,2.422 1.491,1.852 2.261,3.776 3.34,5.441 0.228,0.351 1.064,0.817 1.33,1.206 0.342,0.5 0.247,1.324 0.671,1.814 2.01,2.324 5.632,3.321 6.676,6.047 0.586,1.529 0.314,3.606 0,5.442 -0.855,0.031 -0.923,0.772 -2.003,0.605 -1.808,-1.681 -2.717,-2.118 -4.005,-4.233 -1.62,-2.669 -3.593,-6.493 -4.673,-8.465 -0.475,-0.861 -0.199,-1.583 -0.668,-2.416 -1.187,-2.118 -3.352,-4.004 -4.672,-6.049 -0.39,-0.605 -0.346,-1.311 -0.668,-1.814 -1.117,-1.748 -2.049,-3.182 -3.337,-4.834 -0.76,-0.969 -1.912,-1.447 -2.672,-2.419 -0.76,-0.972 -1.203,-2.555 -2.001,-3.625 -0.336,-0.446 -0.965,-0.63 -1.336,-1.209 -0.842,-1.317 -1.265,-2.203 -2.004,-3.027 -2.32,-2.57 -4.146,-5.29 -6.007,-7.854 -1.372,-1.887 -4.272,-3.998 -3.334,-6.651 M 294.782,167.31 c -1.82,0.687 -6.993,5.1 -8.012,1.817 2.877,1.738 5.784,-3.153 8.012,-1.817 m 99.464,277.461 c 0.149,-0.469 0.016,-1.191 0.668,-1.208 -0.003,-0.337 0.538,-0.689 0.672,0 -1.35,1.771 -0.606,1.708 -2.008,3.024 0.691,-0.655 -2.549,-0.11 -1.336,1.21 -2.197,-0.029 -2.551,-1.726 -2.668,-3.632 1.43,-1.304 3.726,-0.31 4.672,0.606 M 382.9,477.415 c 0.095,0.712 1.188,1.368 0,1.808 -0.097,-0.709 -1.19,-1.368 0,-1.808 m -147.532,-9.07 c 1.295,1.811 2.691,7.721 -0.668,8.466 -0.753,-2.068 -1.545,-7.304 0.668,-8.466 m 150.866,-16.924 c 4.524,-0.092 3.758,6.867 2.004,9.067 -0.542,-3.454 -3.023,-5.888 -2.004,-9.067 m 14.689,-56.824 c -0.884,-6.452 -5.578,-9.459 -5.341,-16.928 6.139,0.697 4.847,8.022 5.341,13.907 0.126,1.523 1.823,2.07 0,3.021 m 2.004,-3.625 c -0.197,-0.37 -1.659,-2.327 0,-2.419 -0.64,1.124 1.997,2.02 0,2.419 M 483.7,348.051 h -1.339 c -0.741,-0.867 -0.718,-1.472 0.671,-1.811 -0.028,0.832 0.317,1.323 0.668,1.811 m 0.668,24.784 c 1.083,0.833 3.302,0.589 2.666,2.419 -3.752,-0.829 -7.051,-2.077 -8.007,-5.439 1.998,-1.289 3.669,1.735 5.341,3.02 m -4.676,-33.854 c 0.412,0.57 1.555,2.235 -0.665,1.817 0.105,-0.712 -0.117,-1.716 0.665,-1.817 m -32.044,10.887 c 0.039,1.038 -0.508,1.548 -1.332,1.814 -0.953,-0.886 -0.981,-2.343 1.332,-1.814 m 30.711,11.486 c -1.759,0.183 -2.19,-0.839 -2.006,-2.419 1.759,-0.184 2.193,0.836 2.006,2.419 m -14.02,33.243 c 1.854,2.886 -2.192,1.466 0,0 m 22.695,-47.151 c -2.625,-2.352 -6.177,-6.768 -4.673,-10.878 4.99,0.789 8.241,7.706 4.673,10.878 m 33.379,66.493 c 0.339,0.184 2.391,0.32 2.672,0.605 0.554,0.569 -0.307,2.251 0.668,2.418 -2.685,-0.592 -5.448,-1.108 -5.344,-4.229 1.371,-0.364 1.428,0.896 2.004,1.206 m -76.768,-73.746 c 1.316,-0.18 1.326,0.817 2.006,1.213 0.036,-0.371 0.098,-0.721 0.665,-0.608 v 1.213 c -0.038,0.364 -0.101,0.712 -0.665,0.601 0.197,-1.592 -2.592,-0.478 -2.006,-2.419 m 84.113,88.859 c -1.051,-1.465 -2.486,-2.58 -2.004,-5.439 3.84,-0.497 3.878,4.008 2.004,5.439 m -10.014,-22.363 c -6.818,0.406 -9.439,-8.765 -5.337,-12.697 4.742,1.339 7.034,7.465 5.337,12.697 m -2.004,18.736 c -0.145,0.474 -0.559,0.705 -1.336,0.604 -1.721,-1.32 -3.444,-3.577 -2,-6.044 3.476,-0.322 3.394,2.571 3.336,5.44 m 0.668,-15.113 c 1.147,0.981 1.659,2.529 1.336,4.836 -2.991,-0.06 -3.055,-3.545 -1.336,-4.836 M 439.64,344.423 c -0.839,-2.048 -2.866,-4.018 -3.337,-6.649 -0.414,-2.295 0.791,-4.875 0.665,-6.644 -0.361,1.086 1.196,1.798 2.004,3.016 1.478,2.236 4.216,9.707 0.668,10.277 m -7.345,88.261 c 0.566,-4.154 -2.469,-8.228 -0.668,-11.489 0.412,6.683 4.416,13.325 2.672,19.948 -0.44,-1.616 -0.281,-3.775 -1.336,-4.835 -0.531,3.099 1.409,3.963 1.336,6.648 -2.774,-0.37 -1.456,-3.191 -2.004,-5.435 -0.551,-2.28 -3.428,-5.091 -1.336,-6.658 0.326,0.715 0.713,1.374 1.336,1.821 m 12.685,50.17 c 0.089,0.883 0.519,2.681 -0.667,3.023 -0.821,-2.286 -2.239,-4.023 -2.004,-7.256 1.415,-0.085 2.526,2.776 2.671,4.233 m -14.685,-64.682 c 1.237,0.092 0.408,2.048 1.332,2.418 -2.035,0.827 -1.874,-4.682 -1.332,-2.418 m 5.34,29.019 c -0.766,-0.714 -0.754,-2.142 -0.668,-3.628 0.371,-1.639 1.824,3.879 0.668,3.628 m -6.676,-144.473 c -0.434,-1.697 -1.814,-1.941 -2.004,-3.631 2.631,0.969 0.234,-2.609 2.004,-2.416 0.398,5.768 1.373,11.492 2.668,15.116 1,2.78 2.086,4.825 2.672,7.25 0.937,3.888 2.273,6.037 2.669,9.067 -1.282,0.247 -0.526,2.345 -2.669,1.814 -2.833,-2.182 -2.758,-4.303 -4.004,-8.459 -0.596,-1.982 -1.853,-4.413 -2.004,-6.05 -0.352,-3.882 1.627,-8.984 0.668,-12.691 m 0.668,109.41 c -0.384,1.615 1.975,3.777 0,4.834 0.771,-1.962 -2.043,-3.713 0,-4.834 m 2,34.459 c 0.244,1.042 2.019,3.732 0.668,4.226 -0.731,-0.604 -2.498,-3.295 -0.668,-4.226 m 7.345,15.715 c -2.156,0.541 -0.941,-1.972 -2.004,-2.422 1.761,-0.18 1.721,1.266 2.004,2.422 M 428.959,276.119 c -4.616,-0.686 -0.85,-4.099 0,0 m 8.009,99.739 c 4.945,-0.041 5.596,3.799 6.677,7.253 -2.875,1.346 0.668,4.932 -2.669,6.047 -2.73,-2.941 -6.997,-8.966 -4.008,-13.3 m 4.008,109.414 c 0.196,0.371 1.662,2.324 0,2.419 -0.197,-0.377 -1.66,-2.327 0,-2.419 m -4.008,-201.9 c -1.162,-1.269 -2.185,-4.435 0,-5.442 0.766,0.766 1.343,4.764 0,5.442 m 1.336,72.539 c 0.104,-0.712 -0.115,-1.716 0.668,-1.813 0.408,0.566 1.557,2.228 -0.668,1.813 m -38.049,82.211 c 0.177,0.826 -0.411,2.356 -0.668,1.206 -0.181,-0.823 0.411,-2.355 0.668,-1.206 M 243.38,187.862 c -1.956,-0.586 -1.5,0.532 -2.672,1.209 -0.525,0.304 -0.937,0.336 -1.332,0.605 -0.554,0.377 -0.238,0.601 -1.336,0.604 0.652,-0.003 -3.29,-1.18 -3.34,-1.209 -1.026,-0.604 -5.344,-6.132 -5.341,-6.047 -0.164,-3.612 3.138,-5.02 8.681,-5.438 2.551,0.912 2.58,4.112 5.34,4.831 0.703,2.532 -1.408,4.103 0,5.445 m -17.36,-18.735 c 1.19,-0.538 1.7,-1.69 4.007,-1.212 3.245,4.394 -4.675,7.022 -4.007,1.212 m 18.028,12.087 c -0.601,-1.95 2.179,-0.849 2.669,-1.815 0.203,1.596 -1.393,1.562 -2.669,1.815 m -16.021,53.802 c 4.004,0.12 6.366,-1.989 12.017,-1.815 0.668,-0.806 0.63,-2.247 2,-2.418 0.029,0.832 -0.316,1.326 -0.668,1.811 6.132,-0.449 9.988,1.272 15.354,0.607 0.035,0.333 -0.038,0.568 -0.148,0.767 0.085,0.015 0.012,0.095 -0.162,0.218 -0.291,0.323 -0.709,0.529 -1.023,0.83 -0.275,0.262 -0.588,0.291 -0.93,0.247 -1.035,0.512 -1.821,0.844 -0.649,0.192 0.025,-0.13 0.079,-0.196 0.117,-0.294 -0.738,-0.178 -1.586,-0.392 -2.545,0.459 0.31,-2.504 -3.122,-1.608 -4.673,-2.419 0.029,0.83 -0.317,1.327 -0.668,1.815 -5.97,0.635 -10.349,2.713 -16.69,3.019 -0.284,-1.155 -1.905,-1.092 -1.332,-3.019 m -7.348,-66.494 c -1.219,-1.434 -1.741,-3.498 -0.668,-5.442 5.838,-1.785 6.388,6.677 0.668,5.442 m 8.016,-27.81 c 0.668,0.003 0.791,-0.488 1.332,-0.602 -0.003,0.605 0.542,0.719 0.665,1.206 -0.668,0 -0.791,0.491 -1.333,0.605 0.004,-0.605 -0.541,-0.719 -0.664,-1.209 m 16.021,31.435 c -0.531,-2.092 0.741,-2.551 1.333,-3.625 3.099,0.416 4.872,2.03 5.341,4.834 -3.191,0.688 -3.688,-0.522 -6.674,-1.209 m 0.668,13.904 c -0.063,-0.956 -1.706,-0.475 -1.336,-1.814 1.001,0.102 2.463,-0.212 2.669,0.605 -0.519,0.133 -1.317,0.012 -1.333,0.604 0.371,-0.003 0.754,0.488 0,0.605 m -0.668,32.034 c -0.56,-0.946 -2.887,-3.365 -1.336,-4.23 -0.462,2.014 1.377,0.976 2.004,0.609 -0.262,1.842 1.754,3.077 -0.668,3.621 m 32.709,-42.31 c 0.25,-0.104 -1.368,-1.152 -1.336,0 0.373,0 0.76,0.488 0,0.605 -0.01,-1 -1.852,-0.336 -2.004,-1.209 1.849,0.1 2.295,-0.928 1.336,-1.815 4.258,2.007 7.68,-2.934 10.684,-1.81 -2.764,1.621 -6.347,1.792 -8.68,3.625 0.054,-0.045 0.867,0.24 0,0.604 m 0.668,13.296 c -0.953,0.146 -1.124,0.994 -2.004,1.209 -0.583,-1.241 1.731,-2.71 2.004,-1.209 m -14.689,-10.276 c 0.202,-2.469 -0.925,0.104 -2.669,-0.605 -0.415,-3.871 -1.174,-0.642 -1.336,-0.604 0.051,-0.01 -0.088,-0.757 -0.668,-0.602 -0.348,0.092 -1.874,1.925 -2.001,0.602 1.76,-1.061 -0.893,-2.523 -1.333,-0.602 -0.915,-0.775 -0.915,-2.855 0,-3.625 2.932,-0.268 2.919,1.188 3.334,1.812 1.418,-1.248 4.625,1.018 7.341,0.604 -0.186,1.637 -2.441,1.413 -2.668,3.02 m -0.668,2.419 c 1.655,-1.969 4.843,1.655 2.672,3.023 0.322,-2.105 -1.672,-2.111 -2.672,-3.023 m 15.357,-97.32 c 2.903,5.311 -6.515,1.041 0,0 m -8.677,94.901 c -2.518,-0.687 -3.04,0.583 -4.008,-1.209 1.19,0.367 2.773,-1.77 3.336,0 -0.405,0.038 -0.788,0.092 -0.668,0.604 0.519,0.14 1.32,0.02 1.34,0.605 m -2.672,-3.02 c 2.554,-1.155 2.431,-0.738 4.672,0 1.44,0.468 2.84,-0.177 2.669,1.209 -2.444,1.051 -4.837,-0.591 -7.341,-1.209"
           style="fill:#3D4849;fill-opacity:1;fill-rule:nonzero;stroke:none"
           id="path833"
           inkscape:connector-curvature="0" /></g></g></g></svg>