<svg xmlns="http://www.w3.org/2000/svg" fill="none" viewBox="0 0 400 400" height="350" width="350"><path fill="#2a0606" d="M267.035 297.029C266.535 297.029 263.135 293.329 259.535 288.829C248.135 274.329 239.635 271.229 232.935 279.029L229.235 283.329L226.935 276.529C222.235 262.529 212.235 257.529 206.235 266.229C200.835 274.029 199.135 279.329 198.535 279.829C198.435 280.029 196.335 279.229 193.935 278.129C183.035 273.129 178.935 277.429 161.935 291.129L159.235 287.829C144.735 270.129 132.535 270.529 113.535 289.329C106.935 295.829 104.435 297.829 103.835 296.829C88.5349 269.729 71.9352 262.229 63.6352 278.829C56.4352 293.229 53.4349 303.129 54.8349 308.929C56.5349 316.529 68.4353 318.729 70.2353 304.529C70.7353 300.729 76.035 286.229 77.935 283.129C79.235 281.129 79.6352 281.729 90.1352 299.429C98.5352 313.529 108.235 326.329 118.235 309.229C136.235 278.629 147.035 274.529 156.135 294.729C159.735 302.829 169.535 304.729 173.035 298.029C175.635 292.929 181.135 286.729 185.635 283.929L189.135 281.829L193.035 285.929C199.935 292.929 207.535 295.029 211.435 283.829C213.635 277.429 214.235 277.829 216.435 286.829C220.435 303.729 233.735 310.729 241.535 292.429C244.835 284.729 244.735 284.729 249.535 291.729C255.035 299.729 260.635 302.529 266.435 300.429C268.135 299.729 268.635 297.029 267.035 297.029Z"></path><path fill="#2a0606" d="M326.535 194.029C316.935 189.229 307.735 189.029 301.135 193.529C297.535 195.929 296.635 196.229 295.935 195.029C290.235 184.929 281.635 179.429 275.435 182.029C272.935 183.029 271.335 189.828 268.935 198.228C263.635 194.328 250.535 187.629 243.935 187.829C234.735 188.129 228.935 197.228 225.035 200.928L222.935 196.228C214.735 177.728 201.535 179.628 189.835 200.928L184.535 210.629L181.735 204.829C170.735 181.529 157.835 182.528 143.935 207.728L138.635 217.228C130.235 203.828 119.835 181.429 104.335 184.029C97.0349 185.229 91.4353 193.928 83.2353 213.428C70.9353 242.828 92.2349 236.328 95.8349 227.228C106.335 200.528 110.435 196.129 115.835 205.329C122.935 217.429 132.935 232.429 134.635 233.829C139.935 238.029 148.235 237.629 149.835 233.329C160.535 204.929 163.835 205.428 165.235 202.928C170.435 216.128 173.235 223.629 175.735 228.129C179.535 234.929 189.935 241.929 197.735 223.829C206.435 203.629 209.635 197.429 210.335 199.529C216.735 221.529 228.435 225.229 238.535 208.329C244.035 199.129 247.635 196.228 248.735 194.928C269.035 211.428 266.435 209.728 268.735 210.728C276.635 214.128 284.635 208.729 284.735 198.129C284.735 197.229 285.935 198.229 287.435 200.329C293.335 208.629 301.935 210.028 309.335 203.928C315.635 198.728 317.735 197.928 322.235 199.228C333.235 202.128 335.935 198.729 326.535 194.029Z"></path><path fill="#2a0606" d="M322.635 123.428L318.735 123.529C311.635 110.629 308.235 103.829 304.535 100.329C299.635 95.7287 287.035 91.5281 283.735 113.228C281.335 129.228 280.535 131.529 278.135 130.629C274.435 129.129 264.435 128.229 260.235 129.029C256.035 129.829 255.835 129.729 253.835 126.529C249.035 118.629 236.635 118.029 225.435 125.129C222.735 126.829 220.535 128.028 220.435 127.928C220.335 127.728 218.835 124.528 217.135 120.928C212.235 110.328 208.235 110.829 196.935 110.829V101.928C196.935 76.5283 179.535 79.1285 168.635 92.1285C163.335 98.5285 156.935 108.629 149.335 122.529L142.435 135.029C133.635 135.029 133.735 135.529 128.735 130.529C123.735 125.529 120.435 124.829 112.935 127.529C110.635 128.429 108.535 129.029 108.435 129.029C105.035 129.029 114.535 94.2285 92.8348 94.1285C85.3348 94.1285 81.0349 99.2289 64.4349 127.529C44.0349 162.329 68.235 155.829 71.035 149.329C73.535 143.529 86.0349 123.428 89.4349 117.928C90.0349 122.328 90.7348 127.629 90.8348 135.129C91.0348 149.529 105.435 151.329 114.135 138.129C119.435 130.129 127.235 132.628 125.735 141.928C125.335 144.128 127.535 147.029 129.535 147.029C133.535 147.029 142.535 152.729 148.435 150.629C152.835 149.129 156.335 143.729 162.935 131.829C164.935 128.129 168.935 121.229 172.335 115.329C174.035 112.329 178.635 113.528 178.635 116.928C180.635 124.728 173.535 137.329 188.535 137.329C192.535 137.329 196.235 135.429 198.935 131.829C202.735 126.629 202.235 126.429 206.935 134.129C212.435 143.229 221.235 144.028 232.335 136.228C239.235 131.428 239.835 131.128 240.835 132.928C243.735 138.428 253.135 140.828 262.735 138.428C268.735 136.928 269.435 136.928 275.535 138.928C290.635 143.928 296.535 140.229 298.435 124.829L299.135 119.129L301.635 122.829C307.535 131.629 313.435 136.128 319.835 136.428C320.635 136.428 344.035 134.129 345.335 132.129C348.035 128.029 334.835 123.028 322.635 123.428Z"></path></svg>